<svg xmlns="http://www.w3.org/2000/svg" xmlns:xlink="http://www.w3.org/1999/xlink" viewBox="0,0,256,256" width="50px" height="50px" fill-rule="nonzero"><g fill="#5c7cfa" fill-rule="nonzero" stroke="none" stroke-width="1" stroke-linecap="butt" stroke-linejoin="miter" stroke-miterlimit="10" stroke-dasharray="" stroke-dashoffset="0" font-family="none" font-weight="none" font-size="none" text-anchor="none" style="mix-blend-mode: normal"><g transform="scale(5.12,5.12)"><path d="M9,4c-2.74952,0 -5,2.25048 -5,5v32c0,2.74952 2.25048,5 5,5h32c2.74952,0 5,-2.25048 5,-5v-32c0,-2.74952 -2.25048,-5 -5,-5zM9,6h32c1.66848,0 3,1.33152 3,3v32c0,1.66848 -1.33152,3 -3,3h-32c-1.66848,0 -3,-1.33152 -3,-3v-32c0,-1.66848 1.33152,-3 3,-3zM23.45117,12c-0.272,0 -0.45117,0.17169 -0.45117,0.42969v3.14062c0,0.257 0.17817,0.42969 0.45117,0.42969v-0.00195h3.09375c0.272,0 0.45508,-0.17169 0.45508,-0.42969v-3.13867c0,-0.257 -0.18308,-0.42969 -0.45508,-0.42969zM23.47461,20c-0.284,0 -0.47461,0.15195 -0.47461,0.37695v17.24609c0,0.225 0.18861,0.375 0.47461,0.375v0.00195h3.04883c0.286,0 0.47656,-0.15195 0.47656,-0.37695v-17.24609c0,-0.225 -0.18956,-0.37695 -0.47656,-0.37695z"></path></g></g></svg>