<svg enable-background="new -532.736 405.297 225.487 115.513" height="115.513" viewBox="-532.736 405.297 225.487 115.513" width="225.487" xmlns="http://www.w3.org/2000/svg"><ellipse cx="-432.219" cy="462.458" fill="#d3e3fe" rx="57.115" ry="57.161"/><path d="m-532.727 511.549c-.004.118-.009.237-.009.356 0 4.918 3.983 8.905 8.897 8.905s8.897-3.986 8.897-8.905c0-.119-.004-.238-.009-.356z" fill="#d3e3fe"/><path d="m-500.739 489.816c-.007.196-.014.393-.014.591 0 8.157 6.607 14.769 14.757 14.769s14.758-6.613 14.758-14.769c0-.198-.007-.395-.014-.591z" fill="#a1c3fc"/><path d="m-395.332 439.764c-.019.469-.036.937-.036 1.41 0 19.472 15.772 35.255 35.226 35.255 19.456 0 35.226-15.785 35.226-35.255 0-.473-.017-.941-.036-1.41z" fill="#eee"/><path d="m-358.405 439.764c-.013.341-.026.681-.026 1.025 0 14.145 11.458 25.611 25.591 25.611 14.134 0 25.591-11.467 25.591-25.611 0-.343-.013-.684-.026-1.025z" fill="#d3e3fe"/></svg>