<svg xmlns="http://www.w3.org/2000/svg"  viewBox="0 0 24 24" width="32px" height="32px"><path fill="#1976d2" d="M21,7H3C2.4,7,2,6.6,2,6s0.4-1,1-1h18c0.6,0,1,0.4,1,1S21.6,7,21,7z"/><path fill="#1976d2" d="M18,13H3c-0.6,0-1-0.4-1-1s0.4-1,1-1h15c0.6,0,1,0.4,1,1S18.6,13,18,13z"/><path fill="#1976d2" d="M12,19H3c-0.6,0-1-0.4-1-1s0.4-1,1-1h9c0.6,0,1,0.4,1,1S12.6,19,12,19z"/><path fill="#0d47a1" d="M21,5H7.5v2H21c0.6,0,1-0.4,1-1S21.6,5,21,5z"/><path fill="#0d47a1" d="M18,11H7.5v2H18c0.6,0,1-0.4,1-1S18.6,11,18,11z"/><path fill="#0d47a1" d="M12,17H7.5v2H12c0.6,0,1-0.4,1-1S12.6,17,12,17z"/></svg>