<svg height="100" viewBox="0 0 1500 1500" width="100" xmlns="http://www.w3.org/2000/svg" xmlns:xlink="http://www.w3.org/1999/xlink"><linearGradient id="a" gradientUnits="userSpaceOnUse" x1="166.98" x2="420.811" y1="929.235" y2="1095.936"><stop offset="0" stop-color="#3658c1"/><stop offset=".118" stop-color="#3252b3"/><stop offset=".337" stop-color="#2a4391"/><stop offset=".633" stop-color="#1c2b58"/><stop offset=".991" stop-color="#0a0a0b"/><stop offset="1" stop-color="#0a0a0a"/></linearGradient><linearGradient id="b" gradientUnits="userSpaceOnUse" x1="514.863" x2="687.582" y1="542.86" y2="939.679"><stop offset="0" stop-color="#b0c3ff"/><stop offset=".112" stop-color="#90a7ef"/><stop offset=".449" stop-color="#3658c1"/><stop offset=".609" stop-color="#273d83"/><stop offset=".795" stop-color="#172242"/><stop offset=".93" stop-color="#0d1019"/><stop offset="1" stop-color="#0a0a0a"/></linearGradient><linearGradient id="c" gradientUnits="userSpaceOnUse" x1="487.529" x2="1274.229" y1="1137.367" y2="982.591"><stop offset="0" stop-color="#0a0a0a"/><stop offset=".042" stop-color="#0b0c0f"/><stop offset=".095" stop-color="#0f131f"/><stop offset=".156" stop-color="#151e3a"/><stop offset=".221" stop-color="#1e2e5f"/><stop offset=".29" stop-color="#29428f"/><stop offset=".353" stop-color="#3658c1"/><stop offset=".401" stop-color="#4969cb"/><stop offset=".498" stop-color="#7d96e5"/><stop offset=".585" stop-color="#b0c3ff"/><stop offset=".626" stop-color="#aabdfb"/><stop offset=".682" stop-color="#99aef3"/><stop offset=".745" stop-color="#7d96e5"/><stop offset=".814" stop-color="#5674d1"/><stop offset=".863" stop-color="#3658c1"/><stop offset=".889" stop-color="#2b4594"/><stop offset=".927" stop-color="#1d2b59"/><stop offset=".96" stop-color="#12192e"/><stop offset=".985" stop-color="#0c0e13"/><stop offset="1" stop-color="#0a0a0a"/></linearGradient><path d="m210.729 881.408 95.418-11.969-29.806 37.954c-5.09 6.481-15.201 7.75-22.554 2.829l-43.059-28.815z" fill="#b0c3ff"/><path d="m263.701 913.716c-3.509 0-7.09-1.002-10.191-3.078l-43.059-28.814c-.173-.116-.256-.328-.208-.531s.217-.355.424-.381l95.418-11.969c.202-.027.397.073.498.25.1.176.083.396-.042.555l-29.806 37.954c-3.094 3.94-7.988 6.014-13.034 6.014zm-51.58-31.979 41.945 28.069c7.138 4.776 16.953 3.555 21.882-2.722l29.055-36.998z" fill="#0a0a0a"/><path d="m210.729 881.408 43.059 28.815c7.353 4.92 17.464 3.652 22.554-2.829l29.806-37.954 164.243 109.91c11.573 7.745 14.461 22.295 6.45 32.496l-109.254 139.123c-8.011 10.201-23.889 12.193-35.462 4.448l-199.674-133.619c-11.573-7.744-14.461-22.295-6.45-32.496l84.729-107.893z" fill="#3658c1"/><path d="m347.713 1160.624c-5.462 0-11.037-1.561-15.867-4.792l-199.674-133.619c-5.91-3.956-9.895-9.965-10.931-16.487-.953-5.992.598-11.935 4.366-16.733l84.729-107.893c.162-.206.455-.253.672-.107l43.059 28.814c7.138 4.776 16.953 3.555 21.882-2.722l29.806-37.954c.162-.206.454-.253.672-.107l164.243 109.909c5.91 3.956 9.895 9.964 10.932 16.486.952 5.993-.599 11.936-4.367 16.734l-109.253 139.122c-4.81 6.124-12.42 9.348-20.268 9.348zm-136.876-278.542-84.442 107.528c-3.595 4.577-5.074 10.245-4.166 15.959.993 6.248 4.82 12.011 10.5 15.813l199.674 133.619c11.344 7.59 26.951 5.643 34.791-4.342l109.253-139.123c3.595-4.578 5.075-10.245 4.166-15.959-.993-6.248-4.82-12.011-10.5-15.813l-163.857-109.651-29.52 37.589c-5.245 6.68-15.664 7.997-23.226 2.936l-42.673-28.557z" fill="#0a0a0a"/><path d="m476.84 1011.844-109.254 139.123c-8.011 10.201-23.889 12.193-35.462 4.448l-199.674-133.619c-8.614-5.764-12.416-15.299-10.494-24.004l-2.76 12.5c-1.922 8.706 1.881 18.24 10.494 24.004l199.674 133.619c11.573 7.745 27.451 5.752 35.462-4.449l109.254-139.123c2.048-2.608 3.384-5.501 4.044-8.492l2.76-12.499c-.66 2.991-1.996 5.883-4.044 8.492z" fill="url(#a)"/><path d="m344.954 1173.124c-5.463 0-11.038-1.561-15.868-4.793l-199.673-133.619c-8.532-5.709-12.734-15.337-10.705-24.528l2.76-12.5c.06-.271.331-.439.596-.38.27.06.44.327.381.596l-.003.014c-1.932 8.781 2.104 17.992 10.287 23.467l199.674 133.619c11.344 7.59 26.95 5.644 34.791-4.341l109.253-139.123c1.952-2.485 3.28-5.269 3.946-8.271l.004-.02c.06-.27.33-.438.596-.38.271.06.44.327.381.596l-.009.038-2.751 12.461c-.697 3.158-2.09 6.083-4.139 8.693l-109.254 139.123c-4.81 6.125-12.42 9.348-20.267 9.349zm-223.905-168.902-1.364 6.178c-1.939 8.786 2.098 18.002 10.285 23.481l199.673 133.619c11.344 7.59 26.951 5.643 34.791-4.342l109.254-139.123c1.956-2.491 3.285-5.281 3.949-8.292l1.37-6.206c-.522.903-1.114 1.775-1.773 2.615l-109.253 139.123c-8.157 10.386-24.367 12.43-36.135 4.555l-199.674-133.619c-6.514-4.359-10.503-11.002-11.123-17.991z" fill="#0a0a0a"/><path d="m210.651 992.39 54.11-68.903" fill="#fff"/><path d="m210.65 992.891c-.108 0-.217-.035-.309-.107-.218-.17-.255-.485-.085-.702l54.11-68.904c.172-.218.486-.255.702-.084.218.17.255.485.085.702l-54.11 68.904c-.099.126-.246.191-.394.191z" fill="#0a0a0a"/><path d="m229.773 1040.64 90.611-115.383" fill="#fff"/><path d="m229.773 1041.14c-.108 0-.217-.035-.309-.107-.218-.17-.255-.485-.085-.702l90.611-115.383c.172-.218.486-.255.702-.084.218.17.255.485.085.702l-90.611 115.383c-.099.126-.246.191-.394.191z" fill="#0a0a0a"/><path d="m274.804 1070.774 90.611-115.383" fill="#fff"/><path d="m274.804 1071.274c-.108 0-.217-.035-.309-.107-.218-.17-.255-.485-.085-.702l90.611-115.384c.172-.218.486-.255.702-.084.218.17.255.485.085.702l-90.611 115.384c-.099.126-.246.191-.394.191z" fill="#0a0a0a"/><path d="m319.82 1100.899 62.643-79.769" fill="#fff"/><path d="m319.82 1101.399c-.108 0-.217-.035-.309-.107-.218-.17-.255-.485-.085-.702l62.643-79.769c.172-.218.486-.255.702-.084.218.17.255.485.085.702l-62.643 79.769c-.099.126-.246.191-.394.191z" fill="#0a0a0a"/><path d="m756.882 430.942c17.493-7.422 39.724 3.241 49.671 23.825l167.808 347.254c9.941 20.572 3.833 43.273-13.66 50.695l-474.343 201.259c-17.483 7.418-39.73-3.252-49.671-23.825l-167.808-347.254c-9.947-20.584-3.824-43.277 13.66-50.695z" fill="#b0c3ff"/><path d="m474.595 1056.824c-14.897 0-30.48-10.157-38.356-26.455l-167.809-347.255c-5.428-11.231-6.315-23.592-2.435-33.912 3.036-8.075 8.843-14.276 16.349-17.461l474.344-201.259.195.46-.195-.46c17.702-7.513 40.272 3.286 50.316 24.067l167.809 347.254c5.428 11.232 6.314 23.593 2.434 33.914-3.036 8.074-8.842 14.274-16.349 17.459l-474.343 201.259c-3.818 1.62-7.863 2.388-11.96 2.388zm294.069-627.735c-3.971 0-7.888.744-11.586 2.313l-474.344 201.259c-7.252 3.077-12.864 9.076-15.804 16.892-3.784 10.065-2.91 22.139 2.399 33.125l167.809 347.255c9.814 20.308 31.806 30.887 49.025 23.581l474.343-201.259c7.252-3.077 12.865-9.076 15.804-16.891 3.785-10.066 2.911-22.14-2.398-33.126l-167.809-347.254c-7.706-15.947-22.923-25.896-37.439-25.896z" fill="#0a0a0a"/><path d="m760.193 446.391-467.452 198.335c-12.227 5.188-16.513 21.064-9.555 35.463l165.114 341.679c6.953 14.388 22.513 21.842 34.74 16.655l467.452-198.335c12.237-5.192 16.514-21.063 9.561-35.451l-165.114-341.679c-6.958-14.399-22.51-21.859-34.747-16.666" fill="#fff"/><path d="m474.812 1040.666c-10.477 0-21.429-7.132-26.961-18.58l-165.114-341.679c-3.814-7.894-4.437-16.584-1.707-23.842 2.139-5.688 6.229-10.055 11.518-12.299l467.451-198.335.195.46-.195-.46c12.454-5.284 28.332 2.3 35.393 16.909l165.114 341.679c3.813 7.889 4.434 16.575 1.706 23.828-2.139 5.687-6.23 10.056-11.522 12.301l-467.451 198.335c-2.689 1.141-5.54 1.682-8.426 1.683zm293.626-595.421c-2.759 0-5.479.517-8.049 1.607l-467.451 198.335c-5.034 2.135-8.931 6.301-10.973 11.73-2.633 7.003-2.024 15.406 1.672 23.055l165.114 341.679c6.829 14.13 22.123 21.491 34.096 16.412l467.451-198.335c5.037-2.137 8.936-6.304 10.978-11.732 2.632-6.999 2.022-15.397-1.671-23.041l-165.114-341.679c-5.365-11.103-15.955-18.03-26.053-18.03z" fill="#0a0a0a"/><path d="m531.453 555.875c-2.952 1.253-3.984 5.085-2.3 8.57 1.679 3.474 5.433 5.275 8.385 4.023 2.952-1.253 3.995-5.089 2.316-8.563s-5.449-5.282-8.401-4.03" fill="#0a0a0a"/><path d="m535.559 569.362c-2.673 0-5.456-1.802-6.856-4.7-.969-2.005-1.125-4.217-.43-6.067.553-1.469 1.612-2.599 2.984-3.181 3.198-1.354 7.255.562 9.047 4.273.964 1.994 1.118 4.199.423 6.048-.555 1.475-1.618 2.608-2.993 3.192-.694.294-1.431.434-2.175.434zm-2.106-13.387c-.619 0-1.229.116-1.805.36-1.134.48-1.977 1.384-2.438 2.612-.601 1.596-.457 3.52.394 5.28 1.563 3.233 5.038 4.927 7.74 3.78 1.121-.476 1.99-1.407 2.447-2.624.6-1.595.459-3.512-.387-5.261-1.232-2.551-3.653-4.147-5.951-4.147z" fill="#0a0a0a"/><path d="m627.116 566.464-283.672 120.359c-3.052 1.295-4.123 5.271-2.382 8.874l116.314 240.695c1.741 3.603 5.637 5.471 8.688 4.176l23.806-10.101 160.922-328.81-14.989-31.016c-1.741-3.603-5.627-5.476-8.689-4.177" fill="#3658c1"/><path d="m464.018 941.477c-2.763 0-5.642-1.866-7.092-4.867l-116.314-240.695c-1-2.069-1.16-4.354-.44-6.268.57-1.518 1.663-2.685 3.077-3.285l283.672-120.359c3.293-1.398 7.481.585 9.335 4.419l14.988 31.016c.066.139.066.3 0 .438l-160.922 328.811c-.053.108-.144.193-.254.241l-23.807 10.101c-.716.304-1.475.448-2.242.448zm163.098-375.013.195.46-283.672 120.359c-1.159.492-2.059 1.456-2.532 2.715-.624 1.659-.477 3.657.405 5.48l116.314 240.695c1.625 3.362 5.234 5.125 8.043 3.934l23.635-10.028 160.733-328.425-14.883-30.797c-1.625-3.362-5.233-5.129-8.044-3.934l-.195-.46z" fill="#0a0a0a"/><path d="m900.183 793.753-105.75-218.833-10.571-21.875c-1.741-3.602-5.631-5.459-8.682-4.165l-124.388 52.776-259.856 110.254c-3.062 1.299-4.138 5.264-2.397 8.866l10.571 21.875 54.153 112.062 36.607 75.753 14.989 31.017c1.735 3.591 5.631 5.46 8.693 4.161l31.237-13.253 353.007-149.778c3.052-1.295 4.123-5.271 2.387-8.861z" fill="#fff"/><path d="m511.496 966.556c-2.764 0-5.641-1.86-7.087-4.854l-116.32-240.708c-.997-2.063-1.157-4.341-.439-6.249.572-1.521 1.67-2.691 3.092-3.294l384.244-163.031c3.29-1.397 7.478.58 9.328 4.407l116.32 240.708c.996 2.062 1.155 4.341.437 6.253-.571 1.519-1.665 2.686-3.079 3.287l-384.243 163.031c-.72.305-1.481.45-2.252.45zm265.751-417.588c-.642 0-1.274.12-1.871.374l-384.244 163.031c-1.167.495-2.071 1.463-2.547 2.726-.621 1.653-.475 3.644.404 5.462l116.32 240.707c1.621 3.355 5.234 5.114 8.048 3.918l384.243-163.031c1.16-.492 2.06-1.458 2.534-2.718.623-1.657.477-3.649-.401-5.465l-116.32-240.708c-1.277-2.642-3.785-4.295-6.166-4.295z" fill="#0a0a0a"/><path d="m590.054 591.763c-2.404 1.02-3.252 4.137-1.885 6.965s4.427 4.288 6.831 3.268 3.243-4.134 1.876-6.962-4.417-4.291-6.821-3.271" fill="#fff"/><path d="m593.385 602.819c-2.213 0-4.512-1.484-5.666-3.873-.796-1.646-.922-3.465-.349-4.992.461-1.225 1.345-2.166 2.489-2.652 2.637-1.121 5.988.457 7.466 3.515.797 1.649.926 3.47.352 4.997-.459 1.22-1.34 2.159-2.481 2.644-.579.245-1.191.361-1.811.362zm-1.704-10.881c-.491 0-.975.092-1.431.286-.903.383-1.575 1.103-1.943 2.083-.479 1.272-.364 2.805.313 4.205 1.249 2.584 4.024 3.942 6.186 3.025.9-.382 1.569-1.099 1.937-2.075.478-1.271.362-2.806-.316-4.209-.984-2.039-2.915-3.314-4.744-3.314z" fill="#0a0a0a"/><path d="m606.181 584.921c-2.404 1.02-3.242 4.133-1.876 6.961 1.367 2.828 4.417 4.292 6.821 3.272s3.242-4.134 1.875-6.962-4.417-4.291-6.821-3.272" fill="#fff"/><path d="m609.519 595.975c-2.209 0-4.508-1.485-5.663-3.875-.797-1.649-.925-3.471-.351-4.997.459-1.22 1.34-2.158 2.481-2.643 2.637-1.122 5.988.457 7.466 3.515.797 1.649.926 3.47.352 4.996-.459 1.22-1.34 2.159-2.481 2.644-.576.244-1.187.36-1.804.36zm-1.711-10.879c-.491 0-.975.092-1.431.286-.899.381-1.569 1.099-1.937 2.074-.478 1.271-.363 2.805.315 4.209 1.251 2.586 4.023 3.943 6.176 3.029.9-.382 1.569-1.099 1.937-2.075.478-1.271.362-2.805-.316-4.209-.984-2.039-2.915-3.314-4.744-3.314z" fill="#0a0a0a"/><path d="m622.309 578.078c-2.404 1.02-3.243 4.133-1.876 6.962 1.367 2.828 4.417 4.292 6.822 3.272s3.252-4.138 1.885-6.966-4.427-4.287-6.83-3.267" fill="#fff"/><path d="m625.645 589.132c-2.209 0-4.508-1.485-5.662-3.875-.797-1.649-.926-3.47-.352-4.996.459-1.22 1.341-2.159 2.482-2.644 2.644-1.122 5.998.452 7.476 3.511.796 1.646.923 3.465.349 4.993-.461 1.224-1.345 2.166-2.488 2.651-.576.245-1.188.36-1.805.36zm-1.704-10.881c-.492 0-.979.092-1.437.287-.9.382-1.57 1.099-1.938 2.075-.478 1.271-.362 2.805.316 4.208 1.249 2.586 4.023 3.947 6.176 3.029.902-.383 1.574-1.103 1.942-2.082.479-1.272.364-2.805-.313-4.206-.984-2.037-2.915-3.312-4.748-3.312z" fill="#0a0a0a"/><path d="m740.828 574.388c-2.404 1.02-3.243 4.134-1.876 6.962s4.423 4.303 6.827 3.283 3.247-4.149 1.88-6.977-4.428-4.288-6.831-3.268" fill="#3658c1"/><path d="m744.173 585.454c-2.212 0-4.514-1.49-5.671-3.886-.797-1.648-.925-3.47-.352-4.996.459-1.22 1.341-2.159 2.482-2.644 2.649-1.124 5.999.453 7.477 3.511.798 1.649.925 3.474.349 5.006-.461 1.224-1.343 2.165-2.484 2.649-.575.244-1.185.36-1.801.36zm-1.712-10.892c-.493 0-.979.092-1.438.287-.9.382-1.57 1.099-1.937 2.075-.479 1.271-.363 2.806.315 4.209 1.25 2.59 4.02 3.958 6.181 3.041.9-.382 1.57-1.101 1.938-2.081.48-1.277.366-2.814-.313-4.219-.984-2.038-2.916-3.312-4.748-3.312z" fill="#0a0a0a"/><path d="m756.955 567.546c-2.404 1.02-3.242 4.134-1.875 6.962s4.423 4.303 6.826 3.283c2.414-1.024 3.247-4.149 1.88-6.977s-4.417-4.292-6.831-3.268" fill="#3658c1"/><path d="m760.3 578.611c-2.211 0-4.513-1.489-5.671-3.885-.797-1.65-.925-3.472-.351-4.999.459-1.219 1.34-2.157 2.48-2.642 2.646-1.122 5.999.452 7.478 3.51.799 1.653.926 3.479.351 5.008-.46 1.222-1.343 2.162-2.486 2.647-.575.244-1.185.36-1.801.36zm-1.713-10.892c-.493 0-.979.092-1.438.287-.899.381-1.568 1.098-1.936 2.073-.478 1.271-.363 2.807.315 4.211 1.252 2.59 4.021 3.955 6.181 3.04.902-.382 1.573-1.101 1.941-2.078.479-1.275.364-2.813-.315-4.221-.984-2.037-2.917-3.312-4.749-3.312z" fill="#0a0a0a"/><path d="m773.091 560.699c-2.404 1.02-3.252 4.138-1.885 6.966s4.432 4.299 6.836 3.279 3.237-4.145 1.871-6.973c-1.367-2.828-4.418-4.292-6.822-3.272" fill="#3658c1"/><path d="m776.43 571.766c-2.213 0-4.516-1.488-5.674-3.883-.795-1.646-.922-3.467-.348-4.994.461-1.224 1.345-2.165 2.488-2.65 2.637-1.122 5.988.456 7.467 3.515.799 1.654.927 3.481.351 5.012-.458 1.219-1.338 2.156-2.477 2.639-.577.245-1.189.361-1.808.361zm-1.713-10.892c-.49 0-.974.092-1.43.286-.902.382-1.574 1.103-1.942 2.081-.479 1.272-.365 2.806.312 4.207 1.252 2.591 4.029 3.954 6.19 3.036.897-.38 1.564-1.096 1.932-2.07.479-1.276.365-2.816-.315-4.225-.985-2.038-2.916-3.314-4.746-3.314z" fill="#0a0a0a"/><path d="m794.434 574.921-358.542 152.126 108.897 225.346 353.007-149.777c3.052-1.295 4.123-5.271 2.387-8.862l-105.749-218.832" fill="#b0c3ff"/><path d="m544.789 952.892c-.187 0-.364-.104-.45-.282l-108.897-225.346c-.06-.124-.066-.266-.018-.394s.146-.231.272-.285l358.542-152.125c.244-.103.529.002.646.243l105.75 218.832c.996 2.063 1.155 4.342.437 6.253-.571 1.519-1.665 2.686-3.079 3.287l-353.007 149.777c-.063.027-.13.04-.195.04zm-108.219-225.59 108.462 224.444 352.568-149.591c1.16-.492 2.06-1.457 2.534-2.718.623-1.657.477-3.649-.401-5.466l-105.543-218.403z" fill="#0a0a0a"/><path d="m435.892 727.047-36.782 15.606 105.749 218.832c1.735 3.591 5.631 5.46 8.693 4.161l31.237-13.253z" fill="#fff"/><g fill="#0a0a0a"><path d="m511.495 966.556c-2.764 0-5.64-1.86-7.086-4.854l-105.749-218.832c-.06-.124-.066-.266-.018-.394s.146-.231.272-.285l36.781-15.606c.244-.104.529.002.646.243l108.897 225.346c.06.124.066.266.018.394s-.146.231-.272.285l-31.237 13.253c-.72.305-1.481.45-2.252.45zm-111.706-223.648 105.521 218.359c1.621 3.355 5.234 5.114 8.047 3.918l30.754-13.048-108.462-224.444-35.859 15.215z"/><path d="m455.866 814.241c-1.655.702-2.236 2.858-1.295 4.806s3.054 2.961 4.709 2.259 2.237-2.858 1.296-4.806-3.054-2.961-4.71-2.258"/><path d="m458.172 822.026c-1.584 0-3.228-1.058-4.051-2.762-.567-1.175-.657-2.477-.245-3.572.332-.883.97-1.562 1.795-1.912 1.9-.806 4.3.318 5.354 2.501.567 1.175.657 2.477.245 3.572-.332.883-.97 1.563-1.795 1.913-.417.177-.857.26-1.304.26zm-1.181-7.511c-.319 0-.633.06-.93.186-.579.246-1.012.71-1.25 1.343-.315.84-.239 1.855.21 2.785.827 1.712 2.653 2.618 4.063 2.016.579-.246 1.012-.71 1.25-1.344.315-.84.239-1.855-.21-2.784-.653-1.353-1.93-2.201-3.134-2.201z"/><path d="m483.365 871.146c-1.655.702-2.236 2.858-1.295 4.806.947 1.96 3.054 2.961 4.709 2.259 1.656-.703 2.243-2.847 1.296-4.806-.941-1.948-3.054-2.961-4.71-2.258"/><path d="m485.671 878.932c-1.584 0-3.227-1.058-4.051-2.762-.567-1.175-.657-2.477-.245-3.572.332-.883.97-1.562 1.795-1.912 1.897-.804 4.299.317 5.355 2.501.568 1.178.659 2.479.248 3.571-.332.882-.971 1.562-1.799 1.913-.417.177-.858.261-1.304.261zm-2.11-7.325c-.579.246-1.012.71-1.25 1.343-.315.84-.239 1.855.21 2.785.828 1.711 2.653 2.618 4.063 2.016.582-.247 1.016-.711 1.253-1.344.315-.837.238-1.852-.212-2.784-.827-1.71-2.651-2.617-4.064-2.015z"/></g><path d="m567.487 702.564 62.204-26.392" fill="#fff"/><path d="m567.487 703.064c-.194 0-.38-.114-.46-.305-.108-.254.011-.548.265-.656l62.203-26.393c.252-.106.548.011.655.265.108.254-.011.548-.265.656l-62.203 26.393c-.063.027-.13.04-.195.04z" fill="#0a0a0a"/><path d="m468.232 744.677 81.812-34.711" fill="#fff"/><path d="m468.231 745.177c-.194 0-.38-.114-.46-.305-.108-.254.011-.548.265-.656l81.813-34.712c.251-.106.549.01.655.265.108.254-.011.548-.265.656l-81.813 34.712c-.063.027-.13.04-.195.04z" fill="#0a0a0a"/><path d="m542.912 747.285 154.268-65.454" fill="#fff"/><path d="m542.912 747.786c-.194 0-.38-.114-.46-.305-.108-.254.011-.548.265-.656l154.268-65.455c.252-.106.549.01.655.265.108.254-.011.548-.265.656l-154.268 65.455c-.063.027-.13.04-.195.04z" fill="#0a0a0a"/><path d="m481.984 773.136 51.264-21.75" fill="#fff"/><path d="m481.984 773.636c-.194 0-.38-.114-.46-.305-.108-.254.011-.548.265-.656l51.264-21.75c.252-.106.549.01.655.265.108.254-.011.548-.265.656l-51.264 21.75c-.063.027-.13.04-.195.04z" fill="#0a0a0a"/><path d="m581.073 765.373 92.483-39.239" fill="#fff"/><path d="m581.073 765.873c-.194 0-.38-.114-.46-.305-.108-.254.011-.548.265-.656l92.483-39.239c.251-.107.549.011.655.265.108.254-.011.548-.265.656l-92.483 39.239c-.063.027-.13.04-.195.04z" fill="#0a0a0a"/><path d="m524.614 789.328 46.655-19.795" fill="#fff"/><path d="m524.614 789.828c-.194 0-.38-.114-.46-.305-.108-.254.011-.548.265-.656l46.655-19.795c.253-.106.548.01.655.265.108.254-.011.548-.265.656l-46.655 19.795c-.063.027-.13.04-.195.04z" fill="#0a0a0a"/><path d="m538.366 817.787 70.113-29.749" fill="#fff"/><path d="m538.366 818.287c-.194 0-.38-.114-.46-.305-.108-.254.011-.548.265-.656l70.112-29.748c.252-.106.548.01.655.265.108.254-.011.548-.265.656l-70.112 29.748c-.063.027-.13.04-.195.04z" fill="#0a0a0a"/><path d="m523.23 858.489 138.82-58.9" fill="#fff"/><path d="m523.23 858.989c-.194 0-.38-.114-.46-.305-.108-.254.011-.548.265-.656l138.819-58.9c.253-.107.549.011.655.265.108.254-.011.548-.265.656l-138.819 58.9c-.063.027-.13.04-.195.04z" fill="#0a0a0a"/><path d="m565.866 874.692 57.566-24.425" fill="#fff"/><path d="m565.865 875.192c-.194 0-.38-.114-.46-.305-.108-.254.011-.548.265-.656l57.566-24.425c.251-.106.548.011.655.265.108.254-.011.548-.265.656l-57.566 24.425c-.063.027-.13.04-.195.04z" fill="#0a0a0a"/><path d="m579.612 903.139 100.123-42.481" fill="#fff"/><path d="m579.612 903.639c-.194 0-.38-.114-.46-.305-.108-.254.011-.548.265-.656l100.123-42.481c.253-.106.548.011.655.265.108.254-.011.548-.265.656l-100.123 42.481c-.063.027-.13.04-.195.04z" fill="#0a0a0a"/><path d="m960.702 852.716-474.343 201.259c-17.483 7.418-39.73-3.252-49.671-23.824l-167.808-347.254c-9.157-18.949-4.695-39.687 9.712-48.648l-6.952 4.324c-14.407 8.961-18.869 29.699-9.712 48.648l167.808 347.254c9.941 20.572 32.188 31.243 49.671 23.825l474.343-201.259c1.389-.589 2.706-1.275 3.949-2.048l6.952-4.324c-1.243.773-2.56 1.458-3.949 2.048z" fill="url(#b)"/><path d="m467.643 1061.148c-14.896 0-30.48-10.157-38.356-26.456l-167.809-347.254c-9.137-18.907-4.881-40.097 9.898-49.291l6.952-4.324c.233-.145.543-.075.688.16.146.234.074.543-.161.688-14.344 8.922-18.439 29.561-9.525 48.006l167.809 347.254c9.814 20.309 31.806 30.887 49.025 23.582l474.343-201.259.135.318-.135-.318c1.333-.565 2.626-1.234 3.843-1.989l.038-.023s0 0 0 0c.234-.144.543-.074.688.161.146.234.074.543-.161.689l-6.952 4.324c-1.273.792-2.626 1.493-4.018 2.084l-474.343 201.259c-3.818 1.62-7.863 2.388-11.96 2.388zm-195.175-422.501-.564.351c-14.344 8.922-18.438 29.561-9.525 48.006l167.809 347.254c9.813 20.308 31.807 30.889 49.025 23.582l474.343-201.259c1.193-.506 2.355-1.096 3.462-1.757l-470.462 199.612c-17.704 7.51-40.273-3.286-50.316-24.067l-167.809-347.254c-7.785-16.109-5.849-33.875 4.038-44.467z" fill="#0a0a0a"/><path d="m957.609 853.453c17.483-7.418 43.356-10.185 57.769-6.179l243.285 67.632c14.412 4.007 11.922 13.274-5.562 20.692l-474.343 201.259c-17.483 7.418-43.357 10.185-57.769 6.179l-243.285-67.632c-14.413-4.007-11.922-13.274 5.562-20.692z" fill="#b0c3ff"/><path d="m737.124 1145.365c-6.14 0-11.764-.594-16.269-1.846l-243.285-67.632c-7.758-2.157-9.571-5.438-9.726-7.811-.297-4.554 5.253-9.593 15.226-13.824l474.343-201.259c17.55-7.445 43.613-10.225 58.099-6.2l243.285 67.632c7.758 2.157 9.57 5.438 9.726 7.811.296 4.554-5.253 9.593-15.226 13.824l-474.343 201.259c-12.092 5.13-28.227 8.046-41.83 8.046zm220.484-291.912.195.46-474.343 201.259c-9.417 3.995-14.882 8.795-14.618 12.838.188 2.897 3.384 5.352 8.995 6.912l243.285 67.632c14.303 3.976 40.068 1.213 57.44-6.157l474.343-201.259c9.417-3.995 14.881-8.794 14.618-12.838-.189-2.897-3.384-5.352-8.995-6.912l-243.285-67.632c-14.302-3.977-40.069-1.213-57.44 6.157z" fill="#0a0a0a"/><path d="m947.652 874.77-405.746 172.154c-5.385 2.285-6.153 5.139-1.713 6.374l127.706 35.502c4.44 1.234 12.401.38 17.786-1.905l405.746-172.154c5.385-2.285 6.151-5.133 1.711-6.367l-127.706-35.502c-4.44-1.234-12.399-.386-17.785 1.899" fill="#fff"/><path d="m672.852 1089.859c-1.919 0-3.678-.186-5.087-.577l-127.706-35.502c-2.585-.719-3.193-1.874-3.248-2.716-.104-1.582 1.637-3.215 4.899-4.6l405.746-172.154c5.462-2.316 13.589-3.177 18.114-1.92l127.706 35.501c2.586.719 3.194 1.874 3.249 2.715.103 1.579-1.637 3.21-4.898 4.594l-405.747 172.154c-3.764 1.597-8.787 2.504-13.028 2.504zm274.995-214.628-405.746 172.154c-3.249 1.378-4.348 2.771-4.292 3.614.047.724.965 1.386 2.518 1.817l127.706 35.502c4.337 1.207 12.167.361 17.457-1.884l405.747-172.154c3.247-1.377 4.346-2.768 4.291-3.608-.047-.723-.965-1.385-2.519-1.816l-127.706-35.501c-4.34-1.208-12.17-.365-17.456 1.877z" fill="#0a0a0a"/><path d="m971.355 973.107-144.474 61.299c-6.223 2.64-7.109 5.938-1.971 7.367l73.879 20.538c5.13 1.426 14.337.441 20.56-2.199l144.474-61.299c6.224-2.641 7.11-5.938 1.98-7.365l-73.879-20.538c-5.139-1.428-14.346-.444-20.569 2.197" fill="#fff"/><path d="m904.523 1063.459c-2.215 0-4.243-.214-5.868-.666l-73.88-20.538c-2.949-.82-3.642-2.124-3.703-3.073-.117-1.791 1.877-3.65 5.613-5.236l144.474-61.299c6.302-2.674 15.679-3.668 20.898-2.218l73.88 20.538c2.943.818 3.635 2.121 3.696 3.069.117 1.792-1.877 3.652-5.615 5.238l-144.475 61.299c-4.339 1.841-10.131 2.887-15.021 2.887zm66.831-90.352.195.46-144.474 61.299c-3.79 1.608-5.071 3.25-5.006 4.25.058.885 1.113 1.657 2.973 2.174l73.88 20.538c5.027 1.398 14.104.421 20.23-2.178l144.475-61.299c3.792-1.609 5.073-3.251 5.008-4.252-.058-.884-1.11-1.655-2.966-2.17l-73.88-20.538c-5.034-1.399-14.115-.424-20.24 2.175l-.195-.46z" fill="#0a0a0a"/><path d="m1270.115 935.333-2.141-13.501c.672 4.237-4.422 9.333-14.873 13.767l-474.343 201.259c-17.483 7.418-43.357 10.186-57.769 6.179l-243.285-67.632c-5.797-1.612-8.86-4.074-9.312-6.925l2.141 13.501c.452 2.851 3.515 5.313 9.312 6.925l243.285 67.632c14.412 4.007 40.286 1.239 57.769-6.179l474.343-201.259c10.451-4.435 15.545-9.53 14.873-13.767z" fill="url(#c)"/><path d="m739.265 1158.866c-6.14 0-11.764-.594-16.269-1.846l-243.285-67.632c-5.823-1.62-9.168-4.154-9.672-7.329l-2.141-13.501c-.043-.272.144-.529.416-.572.263-.045.529.142.572.416.431 2.72 3.61 5.037 8.951 6.521l243.285 67.632c14.3 3.976 40.068 1.213 57.44-6.157l474.343-201.259c9.781-4.15 15.229-9.096 14.574-13.229-.043-.272.144-.529.416-.572.264-.045.529.142.572.416l2.141 13.501c.742 4.685-4.787 9.899-15.172 14.305l-474.343 201.259c-12.092 5.13-28.227 8.046-41.83 8.046zm-269.876-87.296 1.639 10.333c.431 2.72 3.61 5.037 8.951 6.521l243.285 67.632c14.3 3.977 40.068 1.214 57.44-6.157l474.343-201.259c9.781-4.15 15.229-9.095 14.574-13.228l-1.636-10.317c-1.611 3.729-6.721 7.584-14.688 10.965l-474.343 201.259c-17.549 7.446-43.611 10.228-58.099 6.2l-243.285-67.632c-3.839-1.068-6.601-2.533-8.182-4.317z" fill="#0a0a0a"/><path d="m961.187 446.927c-.089-.636-.396-1.153-.842-1.484l-9.918-7.366c.446.331.753.848.842 1.484l1.58 11.693 9.918 7.366z" fill="#b0c3ff"/><path d="m962.767 459.12c-.105 0-.21-.033-.298-.099l-9.918-7.366c-.108-.08-.18-.201-.197-.334l-1.58-11.693c-.067-.48-.296-.889-.644-1.149s0 0 0-.001c-.221-.165-.268-.478-.103-.699.166-.222.481-.266.699-.103s0 0 0 .001l9.916 7.365c.565.42.935 1.065 1.039 1.816v.002l1.58 11.693c.027.199-.067.396-.241.498-.078.046-.166.069-.254.069zm-9.451-8.142 8.797 6.533-1.421-10.516c-.068-.483-.297-.892-.645-1.151l-8.253-6.13 1.521 11.263z" fill="#0a0a0a"/><path d="m908.001 538.313-10.923 6.412c-.527.305-1.082.431-1.594.39-.402-.032-.778-.168-1.092-.401l9.918 7.367c.314.233.69.369 1.092.401.512.041 1.067-.085 1.594-.39l10.924-6.412-9.918-7.366z" fill="#b0c3ff"/><path d="m905.594 552.989c-.077 0-.154-.003-.231-.009-.499-.041-.966-.213-1.351-.499l-9.918-7.367c-.222-.165-.269-.478-.104-.699s.478-.267.699-.104h.002c.234.175.522.279.833.304.427.033.877-.078 1.304-.324l10.92-6.41c.172-.102.391-.089.551.03l9.918 7.366c.135.1.211.261.201.428-.009.167-.102.319-.246.404l-10.923 6.412c-.531.308-1.099.467-1.655.467zm-9.243-7.443 8.257 6.133c.234.174.523.279.835.304.428.037.877-.078 1.304-.324l10.269-6.028-9.046-6.719-10.638 6.244c-.317.184-.647.314-.98.39z" fill="#0a0a0a"/><path d="m954.793 480.512 9.918 7.367c-2.413-1.792-5.341-2.906-8.583-3.166-2.258-.181-4.67.051-7.165.757-9.728 2.757-17.686 12.357-18.774 22.66-.796 7.48 1.958 13.662 6.72 17.198l-9.918-7.367c-4.762-3.537-7.516-9.719-6.72-17.198 1.088-10.303 9.046-19.904 18.774-22.66 2.495-.706 4.907-.938 7.165-.757 3.242.26 6.17 1.374 8.583 3.166" fill="#b0c3ff"/><path d="m936.909 525.828c-.104 0-.209-.032-.298-.099-.003-.001-.005-.003-.007-.005l-9.911-7.362c-5.183-3.849-7.704-10.283-6.919-17.652 1.114-10.552 9.161-20.263 19.134-23.088 2.491-.706 4.961-.967 7.342-.775 3.263.263 6.319 1.391 8.841 3.264l9.918 7.367c.222.165.269.478.104.7-.164.223-.48.267-.699.103-2.37-1.761-5.249-2.823-8.324-3.069-2.263-.183-4.613.066-6.99.739-9.596 2.72-17.339 12.069-18.412 22.232-.747 7.009 1.63 13.112 6.521 16.744.222.165.269.478.104.7-.098.132-.249.202-.401.202zm7.817-48.042c-1.812 0-3.671.267-5.546.797-9.596 2.719-17.339 12.069-18.412 22.232-.746 7.009 1.63 13.112 6.521 16.744l5.333 3.961c-2.426-3.663-3.475-8.328-2.93-13.444 1.114-10.552 9.161-20.263 19.134-23.089 2.491-.705 4.966-.966 7.343-.774 1.272.103 2.515.336 3.705.695l-5.379-3.996c-2.371-1.761-5.25-2.822-8.325-3.069-.478-.039-.959-.058-1.443-.058z" fill="#0a0a0a"/><path d="m928.939 547.211 9.918 7.367c-6.976-.604-13.28-3.032-18.488-6.9l-9.918-7.367c5.208 3.868 11.512 6.296 18.488 6.9" fill="#b0c3ff"/><path d="m938.856 555.078c-.014 0-.028 0-.043-.002-6.903-.598-13.384-3.017-18.742-6.997l-9.9-7.353c-.006-.004-.012-.009-.018-.014-.222-.165-.269-.478-.104-.7s.48-.266.699-.103c5.21 3.869 11.515 6.222 18.232 6.804.093.008.181.042.255.097l9.918 7.367c.18.133.249.37.17.579-.074.195-.262.323-.468.323zm-21.417-10.199 3.228 2.397c4.735 3.517 10.375 5.781 16.407 6.601l-8.32-6.18c-3.956-.357-7.771-1.313-11.314-2.818z" fill="#0a0a0a"/><path d="m997.843 461.702c-.143-.235-.323-.431-.53-.584l-9.918-7.367c.206.153.386.349.53.584l6.892 11.445 9.918 7.367z" fill="#b0c3ff"/><path d="m1004.734 473.648c-.104 0-.209-.033-.298-.099l-9.918-7.367c-.053-.039-.097-.087-.131-.144l-6.892-11.445c-.105-.174-.24-.323-.399-.441-.221-.165-.268-.478-.103-.7.166-.222.481-.266.699-.103s0 0 0 0l9.916 7.366c.263.195.483.439.658.725 0 0 0 .001.002.002l6.892 11.445c.123.205.084.468-.093.628-.095.086-.215.13-.336.13zm-9.541-8.209 7.807 5.798-5.584-9.274c-.107-.176-.242-.325-.401-.442l-7.563-5.619 5.742 9.538z" fill="#0a0a0a"/><path d="m994.136 469.39 9.919 7.367-9.221 9.224-9.918-7.367z" fill="#b0c3ff"/><path d="m994.834 486.481c-.104 0-.209-.032-.298-.099l-9.918-7.367c-.117-.086-.19-.22-.201-.365s.043-.287.146-.39l9.221-9.224c.176-.175.454-.196.651-.048l9.918 7.367c.117.086.19.22.201.365s-.043.287-.146.39l-9.221 9.224c-.097.097-.225.146-.354.146zm-9.155-7.923 9.106 6.764 8.507-8.509-9.106-6.764z" fill="#0a0a0a"/><path d="m994.817 465.781 9.918 7.367c.628 1.051.347 2.591-.68 3.609l-9.918-7.367c1.027-1.018 1.308-2.558.68-3.609" fill="#b0c3ff"/><path d="m1004.055 477.257c-.104 0-.209-.033-.298-.099l-9.918-7.367c-.117-.087-.19-.22-.201-.366-.01-.146.044-.288.146-.391.857-.85 1.116-2.139.603-2.998-.122-.205-.083-.467.095-.627.178-.161.442-.172.633-.031l9.918 7.367c.053.039.098.088.131.145.756 1.262.438 3.037-.756 4.221-.097.096-.225.145-.353.145zm-9.187-7.946 9.115 6.77c.605-.801.764-1.844.367-2.595l-8.698-6.461c.007.783-.265 1.599-.784 2.286z" fill="#0a0a0a"/><path d="m984.916 478.614 9.918 7.367c1.028 3.846 1.56 7.99 1.5 12.399-.057 4.397-.691 8.76-1.821 12.995l-9.918-7.367c1.13-4.235 1.764-8.598 1.821-12.995.06-4.409-.472-8.553-1.5-12.399" fill="#b0c3ff"/><path d="m994.514 511.875c-.105 0-.211-.034-.298-.099l-9.918-7.366c-.165-.122-.238-.332-.186-.53 1.142-4.28 1.749-8.611 1.804-12.873.059-4.239-.44-8.365-1.483-12.264-.055-.205.026-.423.202-.542.175-.12.408-.115.579.012l9.918 7.367c.091.067.156.163.186.272 1.065 3.987 1.576 8.204 1.517 12.535-.056 4.344-.674 8.757-1.837 13.117-.043.16-.162.289-.318.343-.054.019-.109.028-.165.028zm-9.349-8.066 9.051 6.722c1.022-4.047 1.566-8.133 1.618-12.158.058-4.178-.427-8.247-1.438-12.095l-8.655-6.429c.833 3.581 1.229 7.332 1.176 11.171-.055 4.234-.644 8.535-1.751 12.789z" fill="#0a0a0a"/><path d="m947.189 558.206-14.102 2.542c-.225.042-.444.054-.653.037-.405-.032-.773-.171-1.077-.397l9.918 7.367c.304.226.672.365 1.077.397.209.017.428.005.653-.038l14.102-2.542-9.918-7.367z" fill="#b0c3ff"/><path d="m942.539 568.66c-.076 0-.151-.003-.227-.009-.492-.04-.954-.211-1.336-.495l-9.917-7.366s0 0 0 0c-.221-.165-.268-.478-.103-.699.167-.222.481-.266.699-.103l.005.003c.23.17.512.273.814.297.166.014.341.004.52-.03l14.106-2.543c.136-.023.276.008.387.091l9.918 7.367c.16.119.234.321.188.516-.045.194-.201.342-.397.378l-14.103 2.542c-.184.035-.37.053-.555.053zm-9.229-7.443 8.263 6.137c.231.172.515.276.819.3.167.014.342.003.519-.03l12.971-2.338-8.816-6.549-13.755 2.48z" fill="#0a0a0a"/><path d="m951.689 543.1 9.918 7.367-1.885 12.315-9.918-7.367z" fill="#b0c3ff"/><path d="m959.722 563.282c-.105 0-.211-.034-.298-.099l-9.918-7.366c-.149-.11-.225-.294-.196-.477l1.885-12.315c.026-.173.142-.32.304-.387.163-.066.349-.043.488.061l9.918 7.366c.149.11.225.294.196.477l-1.885 12.315c-.026.173-.142.32-.304.387-.062.025-.126.038-.19.038zm-9.378-8.088 9.01 6.691 1.713-11.197-9.01-6.691z" fill="#0a0a0a"/><path d="m949.804 555.415 9.918 7.367c-.206 1.371-1.32 2.557-2.615 2.791l-9.918-7.367c1.295-.233 2.408-1.419 2.615-2.791" fill="#b0c3ff"/><path d="m957.107 566.072c-.106 0-.211-.034-.298-.099l-9.919-7.366c-.16-.119-.234-.321-.188-.516.045-.194.201-.342.397-.378 1.085-.195 2.035-1.215 2.21-2.373.026-.173.142-.321.304-.388.163-.066.349-.043.488.061l9.918 7.366c.148.11.224.293.196.476-.238 1.586-1.508 2.936-3.02 3.208-.029.005-.06.008-.089.008zm-8.865-7.707 8.979 6.668c.91-.253 1.692-1.076 1.947-2.041l-9.07-6.737c-.343.908-1.021 1.675-1.855 2.109z" fill="#0a0a0a"/><path d="m972.953 526.58 9.918 7.367c-5.789 7.087-13.099 12.876-21.264 16.521l-9.918-7.367c8.166-3.645 15.475-9.434 21.264-16.521" fill="#b0c3ff"/><path d="m961.606 550.967c-.105 0-.21-.034-.298-.099l-9.918-7.366c-.143-.106-.219-.279-.199-.456.02-.176.131-.33.293-.402 7.929-3.539 15.219-9.203 21.081-16.38.17-.208.474-.244.686-.085l9.918 7.366c.11.082.182.204.198.34s-.022.272-.108.378c-5.963 7.298-13.379 13.059-21.448 16.661-.065.029-.135.043-.204.043zm-8.94-7.763 9.003 6.687c7.675-3.478 14.742-8.95 20.481-15.856l-9.113-6.769c-5.717 6.891-12.736 12.382-20.371 15.939z" fill="#0a0a0a"/><path d="m993.709 509.986 9.918 7.367c.932.692 1.146 2.078.5 3.323l-9.918-7.367c.647-1.245.432-2.631-.5-3.323" fill="#b0c3ff"/><path d="m1004.127 521.176c-.106 0-.211-.034-.298-.099l-9.918-7.367c-.197-.146-.259-.414-.146-.632.526-1.015.378-2.147-.354-2.691-.222-.165-.269-.478-.104-.699.164-.222.479-.267.699-.104l9.918 7.367c1.129.838 1.4 2.501.646 3.955-.067.13-.188.224-.331.257-.037.008-.075.013-.112.013zm-9.297-8.028 9.073 6.739c.233-.847.025-1.687-.574-2.132l-8.26-6.135c.035.495-.043 1.019-.239 1.528z" fill="#0a0a0a"/><path d="m984.078 529.11 9.918 7.366-11.125-2.53-9.918-7.366z" fill="#b0c3ff"/><path d="m993.996 536.977c-.036 0-.074-.004-.111-.013l-11.125-2.53c-.067-.016-.131-.045-.187-.086l-9.918-7.366c-.19-.141-.255-.396-.156-.61s.327-.333.565-.279l11.125 2.53c.067.016.131.045.187.086l9.918 7.367c.19.141.255.396.156.61-.083.18-.262.291-.454.291zm-10.911-3.495 8.707 1.98-7.928-5.888-8.707-1.98z" fill="#0a0a0a"/><path d="m994.209 513.309 9.918 7.367-7.213 13.999-9.918-7.366z" fill="#b0c3ff"/><path d="m996.914 535.175c-.106 0-.211-.034-.298-.099l-9.918-7.367c-.197-.146-.259-.413-.146-.63l7.213-14c.067-.13.188-.225.331-.258.146-.034.294-.002.411.085l9.918 7.367c.197.146.259.413.146.63l-7.213 14c-.067.13-.188.225-.331.258-.038.009-.075.013-.113.013zm-9.279-8.015 9.104 6.763 6.749-13.099-9.104-6.763z" fill="#0a0a0a"/><path d="m986.996 527.309 9.918 7.367c-.598 1.173-1.803 1.891-2.917 1.801l-9.918-7.367c1.115.09 2.319-.628 2.917-1.801" fill="#b0c3ff"/><path d="m994.181 536.984c-.075 0-.149-.003-.225-.009-.094-.008-.183-.041-.258-.097l-9.918-7.367c-.18-.133-.249-.369-.17-.577.077-.208.259-.339.508-.323.95.089 1.935-.554 2.433-1.53.066-.131.188-.226.331-.259.146-.033.294-.002.412.085l9.918 7.367c.196.146.259.411.147.629-.639 1.251-1.921 2.081-3.179 2.081zm-.009-1s.011 0 .016 0c.769 0 1.56-.458 2.065-1.178l-9.116-6.771c-.462.645-1.104 1.132-1.8 1.386l8.835 6.562z" fill="#0a0a0a"/><path d="m993.619 509.923c1.008.668 1.256 2.102.589 3.386l-7.213 13.999c-.598 1.173-1.803 1.891-2.917 1.801l-11.125-2.53c-5.789 7.087-13.099 12.876-21.264 16.521l-1.885 12.315c-.206 1.371-1.32 2.557-2.615 2.791l-14.102 2.542c-.225.043-.444.054-.653.037-.997-.08-1.769-.805-1.916-1.882l-1.58-11.693c-8.109-.702-15.311-3.87-20.938-8.898l-10.923 6.412c-.527.305-1.082.431-1.594.39-.667-.054-1.26-.391-1.622-.986l-6.892-11.445c-.628-1.051-.335-2.59.68-3.609l9.22-9.224c-1.028-3.846-1.56-7.99-1.5-12.399.057-4.397.688-8.747 1.818-12.983l-9.021-5.927c-1.008-.669-1.256-2.102-.589-3.386l7.213-13.999c.598-1.173 1.803-1.891 2.918-1.801l11.125 2.53c5.789-7.087 13.099-12.876 21.264-16.521l1.885-12.315c.206-1.371 1.331-2.556 2.626-2.79l14.091-2.543c.225-.042.443-.053.651-.037 1.003.081 1.769.813 1.918 1.881l1.58 11.693c8.117.715 15.311 3.87 20.949 8.899l10.912-6.412c.527-.305 1.082-.431 1.594-.39.667.054 1.26.391 1.622.986l6.892 11.445c.628 1.051.347 2.591-.68 3.609l-9.22 9.224c1.028 3.846 1.56 7.99 1.5 12.399-.057 4.397-.691 8.76-1.821 12.995l9.024 5.915zm-50.877 10.439c9.728-2.757 17.686-12.357 18.774-22.66 1.197-11.261-5.664-19.582-15.305-20.357-2.258-.181-4.67.051-7.165.757-9.728 2.757-17.686 12.357-18.774 22.66-1.199 11.266 5.656 19.587 15.293 20.361 2.262.182 4.678-.052 7.178-.762" fill="#fff"/><path d="m932.621 561.293c-.076 0-.151-.003-.227-.009-1.244-.1-2.197-1.029-2.371-2.313l-1.527-11.299c-7.78-.753-14.872-3.77-20.555-8.745l-10.611 6.228c-.604.35-1.254.507-1.887.458-.845-.068-1.577-.515-2.009-1.225l-6.893-11.447c-.75-1.254-.433-3.028.754-4.22l9.019-9.021c-1.016-3.905-1.501-8.026-1.443-12.255.055-4.227.641-8.517 1.742-12.756l-8.721-5.729c-1.23-.817-1.548-2.513-.758-4.035l7.212-13.998c.676-1.325 2.072-2.177 3.402-2.071l10.895 2.473c5.866-7.109 13.118-12.741 21.002-16.309l1.844-12.046c.237-1.583 1.513-2.932 3.031-3.206l14.091-2.543c.26-.048.521-.063.779-.043 1.24.1 2.193 1.028 2.373 2.31l1.527 11.301c7.791.766 14.886 3.783 20.565 8.746l10.6-6.229c.606-.35 1.264-.507 1.887-.457.846.067 1.578.514 2.01 1.225l6.893 11.446c.755 1.264.437 3.039-.756 4.222l-9.017 9.02c1.016 3.905 1.501 8.027 1.443 12.256-.055 4.228-.642 8.521-1.745 12.768l8.723 5.717s0 0 .002.001c1.229.815 1.548 2.511.757 4.033l-7.212 13.998c-.676 1.326-2.061 2.179-3.402 2.071l-10.895-2.472c-5.865 7.108-13.117 12.74-21.002 16.309l-1.844 12.046c-.239 1.585-1.51 2.935-3.021 3.207l-14.102 2.542c-.184.035-.37.053-.555.053zm-24.62-23.48c.12 0 .239.043.333.127 5.662 5.061 12.802 8.094 20.647 8.773.233.02.421.199.452.431l1.58 11.693c.111.818.686 1.388 1.461 1.45.167.013.343.003.519-.03l14.106-2.543c1.085-.195 2.035-1.215 2.21-2.373l1.885-12.316c.025-.168.135-.312.29-.381 7.929-3.539 15.219-9.203 21.081-16.38.121-.147.312-.213.499-.171l11.125 2.53c.853.076 1.864-.564 2.361-1.541l7.214-14.001c.551-1.061.373-2.212-.422-2.74l-9.021-5.914c-.18-.118-.265-.338-.209-.547 1.143-4.28 1.749-8.611 1.804-12.873.059-4.239-.44-8.365-1.483-12.264-.046-.172.004-.356.13-.482l9.221-9.224c.858-.852 1.117-2.14.604-2.999l-6.891-11.443c-.266-.438-.704-.703-1.233-.745-.431-.036-.878.077-1.304.324l-10.909 6.411c-.186.11-.424.086-.586-.058-5.658-5.048-12.802-8.082-20.659-8.774-.232-.021-.42-.2-.451-.431l-1.58-11.693c-.115-.817-.688-1.387-1.463-1.449-.168-.014-.342-.004-.519.03l-14.094 2.544c-1.093.197-2.047 1.216-2.221 2.372l-1.885 12.316c-.025.168-.135.312-.29.381-7.928 3.538-15.218 9.202-21.081 16.38-.122.147-.314.212-.499.171l-11.125-2.531c-.848-.061-1.863.565-2.361 1.542l-7.214 14.001c-.551 1.061-.373 2.213.421 2.741l9.02 5.925c.18.118.265.339.209.547-1.141 4.272-1.746 8.6-1.801 12.86-.059 4.239.44 8.365 1.483 12.264.046.172-.004.356-.13.482l-9.221 9.224c-.854.857-1.114 2.146-.604 2.999l6.892 11.444c.266.438.703.703 1.232.745.432.039.878-.078 1.303-.324l10.922-6.41c.078-.046.166-.069.253-.069zm29.045-16.129c-.511 0-1.019-.02-1.522-.061-4.656-.375-8.812-2.499-11.699-5.982-3.223-3.887-4.661-9.189-4.05-14.93 1.114-10.552 9.161-20.263 19.134-23.088 2.491-.706 4.961-.967 7.342-.775 4.661.375 8.82 2.5 11.711 5.986 3.223 3.886 4.662 9.186 4.052 14.922-1.114 10.552-9.161 20.262-19.134 23.088-1.97.559-3.925.84-5.833.84zm7.681-43.897c-1.812 0-3.671.267-5.546.797-9.596 2.719-17.339 12.069-18.412 22.232-.582 5.471.776 10.509 3.825 14.187 2.715 3.274 6.625 5.271 11.01 5.624 2.26.184 4.62-.069 7.002-.744 9.597-2.72 17.34-12.069 18.413-22.232.581-5.466-.778-10.501-3.827-14.178-2.718-3.276-6.632-5.275-11.021-5.627-.478-.039-.959-.058-1.443-.058z" fill="#0a0a0a"/><path d="m856.251 421.945-20.769 4.462-9.117 9.951 20.769-4.462c.581-.096 1.058-.357 1.402-.732l9.117-9.951c-.344.375-.82.636-1.402.733z" fill="#3658c1"/><path d="m826.365 436.858c-.177 0-.344-.094-.434-.251-.108-.189-.082-.426.064-.586l9.117-9.951c.07-.076.163-.129.264-.151l20.769-4.462c.008-.002.016-.003.023-.004.451-.075.834-.272 1.11-.572l.004-.005c.188-.204.503-.216.707-.031.203.186.218.502.031.706-.002.002-.004.004-.005.006l-9.111 9.946c-.431.469-1.015.776-1.69.888l-20.744 4.458c-.035.008-.07.011-.105.011zm9.378-9.995-7.95 8.677 19.235-4.132c.476-.079.861-.279 1.14-.582l7.564-8.258z" fill="#0a0a0a"/><path d="m731.631 331.875c-.217-.948.001-1.796.528-2.371l-9.117 9.951c-.527.575-.744 1.423-.528 2.371l4.094 22.438 9.117-9.951z" fill="#3658c1"/><path d="m726.608 364.764c-.046 0-.093-.006-.139-.02-.183-.053-.319-.204-.354-.391l-4.094-22.438c-.241-1.054-.006-2.082.65-2.799l9.115-9.948s.002-.002.002-.003c.188-.204.506-.216.707-.031.203.187.218.503.031.707l-.002.002c-.43.471-.579 1.17-.408 1.92.002.007.003.014.005.021l4.095 22.438c.027.154-.018.312-.123.428l-9.117 9.951c-.097.105-.231.162-.369.162zm4.451-33.32-7.648 8.349c-.432.471-.581 1.171-.409 1.922l3.918 21.469 8.27-9.026-4.049-22.183c-.04-.179-.066-.356-.081-.531z" fill="#0a0a0a"/><path d="m808.231 449.664-9.117 9.951c6.653-7.262 9.953-17.627 8.394-29.594-3.266-25.079-26.634-47.695-52.192-50.512-13.363-1.473-24.679 2.757-31.969 10.714l9.117-9.951c7.29-7.957 18.606-12.187 31.969-10.714 25.558 2.818 48.925 25.433 52.192 50.512 1.559 11.967-1.741 22.332-8.394 29.594" fill="#3658c1"/><path d="m799.114 460.115c-.121 0-.242-.043-.338-.131-.203-.187-.218-.503-.031-.707 6.814-7.438 9.75-17.805 8.267-29.191-3.232-24.825-26.447-47.291-51.75-50.08-12.63-1.396-24.124 2.455-31.545 10.555-.187.205-.504.217-.707.031-.203-.187-.218-.503-.031-.707l9.117-9.951c7.64-8.338 19.448-12.302 32.393-10.873 25.732 2.837 49.343 25.691 52.633 50.945 1.521 11.685-1.505 22.337-8.521 29.996l-9.116 9.951c-.099.107-.234.162-.369.162zm-48.883-81.389c1.688 0 3.403.094 5.14.286 25.733 2.837 49.344 25.691 52.633 50.945 1.124 8.632-.234 16.701-3.85 23.416l3.707-4.047c6.814-7.438 9.751-17.804 8.268-29.191-3.233-24.824-26.448-47.29-51.75-50.08-12.628-1.395-24.125 2.455-31.545 10.555l-3.745 4.087c5.937-3.896 13.235-5.971 21.143-5.971z" fill="#0a0a0a"/><path d="m844.603 479.777-9.117 9.951c-.537.586-1.357.844-2.238.747-.546-.06-1.114-.257-1.653-.596l9.117-9.951c.538.34 1.107.536 1.653.596.881.097 1.701-.161 2.238-.747" fill="#3658c1"/><path d="m833.606 490.996c-.136 0-.273-.008-.413-.023-.635-.07-1.28-.302-1.864-.67-.125-.079-.209-.209-.229-.356-.021-.147.026-.295.126-.404l9.116-9.951c.165-.178.433-.213.636-.085.457.288.956.469 1.441.522.739.08 1.397-.133 1.813-.588.188-.204.505-.216.707-.031.203.187.218.503.031.707 0 0-.002.001-.003.002l-9.113 9.949c-.552.601-1.355.929-2.249.929zm-1.204-1.256c.297.125.601.207.9.239.735.079 1.398-.134 1.815-.588l7.646-8.346c-.148-.002-.299-.006-.453-.022-.506-.056-1.018-.214-1.499-.461l-8.409 9.179z" fill="#0a0a0a"/><path d="m840.712 479.929-9.117 9.95-21.599-12.423 9.117-9.951z" fill="#3658c1"/><path d="m831.596 490.379c-.085 0-.171-.022-.249-.066l-21.6-12.424c-.132-.076-.222-.207-.245-.357s.023-.303.125-.415l9.117-9.951c.159-.172.415-.21.618-.096l21.599 12.424c.132.076.222.207.245.357s-.023.303-.125.415l-9.116 9.951c-.098.106-.232.162-.369.162zm-20.81-13.046 20.712 11.913 8.424-9.195-20.711-11.913z" fill="#0a0a0a"/><path d="m686.995 360.1c-.094.102-.179.215-.255.337l-9.119 14.707 9.117-9.951 9.119-14.707c.075-.123.161-.235.255-.337z" fill="#3658c1"/><path d="m677.621 375.644c-.105 0-.212-.033-.302-.102-.206-.156-.259-.442-.123-.662l9.119-14.707c.091-.148.196-.286.311-.411s9.116-9.951 9.116-9.951c.188-.204.503-.216.707-.031.203.186.218.502.031.706-.073.08-.139.167-.197.262l-9.121 14.709-9.172 10.025c-.099.107-.233.162-.369.162zm9.743-15.207c-.073.08-.14.167-.198.262l-6.305 10.168 5.507-6.011 6.373-10.288z" fill="#0a0a0a"/><path d="m819.113 467.505-9.117 9.951c-4.121 3.463-8.882 6.194-14.144 8.107l9.117-9.951c5.262-1.913 10.024-4.645 14.144-8.107" fill="#3658c1"/><path d="m795.852 486.063c-.163 0-.321-.08-.416-.222-.128-.192-.108-.446.047-.616l9.117-9.951c.055-.059.123-.104.198-.132 5.203-1.892 9.911-4.59 13.994-8.021.2-.169.501-.154.683.037.182.19.186.489.008.684l-9.117 9.951c-4.22 3.551-9.029 6.308-14.343 8.239-.056.021-.114.03-.171.03zm9.403-10.023-7.588 8.282c4.419-1.828 8.451-4.261 12.008-7.25l5.508-6.016c-3.057 2.014-6.38 3.683-9.928 4.983z" fill="#0a0a0a"/><path d="m706.779 386.326-9.117 9.951-18.877-16.826 9.117-9.951z" fill="#3658c1"/><path d="m697.662 396.777c-.118 0-.237-.042-.333-.127l-18.877-16.826c-.1-.089-.159-.214-.166-.348s.04-.265.13-.363l9.117-9.951c.185-.202.497-.217.702-.035l18.877 16.826c.1.089.159.214.166.348s-.04.265-.13.363l-9.117 9.951c-.099.107-.234.162-.369.162zm-18.166-17.362 18.131 16.161 8.441-9.213-18.131-16.161z" fill="#0a0a0a"/><path d="m687.902 369.5-9.117 9.951c-1.43-1.183-1.942-3.061-1.164-4.307l9.117-9.951c-.778 1.246-.266 3.124 1.164 4.307" fill="#3658c1"/><path d="m678.785 379.951c-.112 0-.226-.038-.318-.115-1.642-1.356-2.188-3.488-1.27-4.957l9.171-10.024c.176-.191.465-.217.672-.06.205.156.258.443.121.663-.642 1.029-.176 2.636 1.06 3.657.105.087.171.214.181.351.009.137-.038.271-.13.373l-9.117 9.951c-.099.107-.233.162-.369.162zm7.101-13.088-7.896 8.619c-.528.86-.205 2.247.766 3.261l8.44-9.211c-.768-.778-1.222-1.737-1.311-2.668z" fill="#0a0a0a"/><path d="m705.214 403.529-9.117 9.951c-.361-5.983.16-11.779 1.565-17.202l9.117-9.951c-1.405 5.424-1.927 11.219-1.565 17.202" fill="#3658c1"/><path d="m696.097 413.979c-.056 0-.112-.009-.167-.029-.189-.067-.32-.241-.332-.441-.366-6.058.166-11.898 1.58-17.358.021-.079.061-.152.115-.212l9.117-9.951c.156-.169.405-.211.607-.102.202.11.304.343.246.565-1.389 5.358-1.91 11.094-1.551 17.047.008.135-.039.268-.13.368l-9.117 9.951c-.097.105-.231.162-.369.162zm2.019-17.457c-1.273 4.966-1.804 10.253-1.58 15.737l8.167-8.913c-.302-5.291.083-10.415 1.144-15.261l-7.73 8.437z" fill="#0a0a0a"/><path d="m774.196 477.833-9.117 9.951c-6.198-1.082-12.414-3.02-18.457-5.758l9.117-9.951c6.042 2.739 12.259 4.676 18.457 5.758" fill="#3658c1"/><path d="m765.079 488.284c-.028 0-.058-.002-.086-.007-6.251-1.091-12.501-3.041-18.577-5.795-.146-.066-.252-.198-.284-.355-.031-.157.014-.32.121-.438l9.117-9.951c.146-.159.378-.207.575-.118 6.002 2.721 12.171 4.646 18.337 5.721.18.032.328.159.388.332.059.173.019.364-.104.499l-9.117 9.951c-.096.104-.23.162-.369.162zm-17.62-6.431c5.714 2.532 11.574 4.344 17.437 5.391l8.32-9.081c-5.838-1.095-11.669-2.938-17.353-5.484z" fill="#0a0a0a"/><path d="m806.897 501.192-18.957 1.36-9.117 9.951 18.957-1.36c.687-.051 1.253-.328 1.647-.758l9.117-9.951c-.394.431-.96.708-1.646.758z" fill="#3658c1"/><path d="m778.822 513.003c-.19 0-.366-.109-.45-.282-.089-.185-.057-.405.081-.556l9.117-9.951c.087-.094.206-.152.333-.161l18.957-1.36c.538-.04.991-.246 1.311-.594l.003-.002c.188-.205.503-.217.707-.032.203.186.218.502.031.706s-.003.003-.004.004l-9.113 9.947c-.496.542-1.181.86-1.979.919l-18.958 1.36c-.013 0-.024.001-.036.001zm9.352-9.967-8.134 8.878 17.703-1.27c.538-.04.993-.247 1.313-.597l7.642-8.34z" fill="#0a0a0a"/><path d="m783.947 499.869-9.117 9.951-9.751-22.036 9.117-9.951z" fill="#3658c1"/><path d="m774.83 510.32c-.026 0-.054-.002-.081-.007-.166-.027-.308-.137-.376-.291l-9.751-22.036c-.081-.182-.046-.394.088-.54l9.117-9.951c.114-.125.284-.185.45-.155.166.027.308.137.376.291l9.75 22.036c.081.182.046.394-.088.54l-9.116 9.951c-.096.104-.23.162-.369.162zm-9.161-22.439 9.309 21.038 8.379-9.146-9.308-21.038z" fill="#0a0a0a"/><path d="m787.94 502.552-9.117 9.951c-.193.014-.388.01-.582-.012-1.426-.157-2.835-1.235-3.411-2.672l9.117-9.951c.575 1.436 1.984 2.515 3.411 2.672.195.021.389.026.582.012" fill="#3658c1"/><path d="m778.598 513.012c-.138 0-.275-.008-.412-.023-1.617-.178-3.188-1.405-3.819-2.983-.071-.179-.034-.382.095-.524l9.116-9.951c.115-.126.285-.189.459-.154.169.031.311.146.374.306.501 1.25 1.735 2.221 3.002 2.361.165.018.329.022.491.01.208-.016.396.097.486.281.089.184.057.404-.081.556l-9.117 9.951c-.087.094-.205.151-.332.161-.087.006-.175.01-.262.01zm-3.177-3.097c.563 1.113 1.705 1.951 2.874 2.08.1.011.2.017.3.017l8.286-9.044c-1.222-.271-2.372-1.117-3.054-2.229z" fill="#0a0a0a"/><path d="m727.022 451.329-9.117 9.951c-4.654-4.999-8.685-10.465-11.977-16.236l9.117-9.951c3.293 5.771 7.323 11.237 11.977 16.236" fill="#3658c1"/><path d="m717.905 461.779c-.139 0-.271-.058-.366-.159-4.678-5.024-8.73-10.518-12.046-16.329-.107-.188-.081-.425.065-.585l9.117-9.951c.108-.118.266-.175.425-.159.159.018.3.11.379.25 3.277 5.745 7.284 11.176 11.909 16.143.178.191.179.486.003.679l-9.117 9.951c-.095.103-.228.162-.367.162h-.002zm-11.362-16.667c3.155 5.475 6.975 10.662 11.36 15.429l8.439-9.21c-4.386-4.759-8.215-9.935-11.391-15.397l-8.409 9.178z" fill="#0a0a0a"/><path d="m715.045 435.092-9.117 9.951-22.58-1.339 9.116-9.951z" fill="#3658c1"/><path d="m705.928 445.543c-.01 0-.02 0-.029 0l-22.58-1.339c-.192-.011-.361-.132-.435-.311-.072-.179-.035-.383.095-.526l9.117-9.951c.103-.111.248-.166.398-.161l22.58 1.339c.192.011.361.132.435.311.072.179.035.383-.095.526l-9.117 9.951c-.096.104-.229.162-.369.162zm-21.502-2.276 21.294 1.263 8.247-9.001-21.294-1.263z" fill="#0a0a0a"/><path d="m682.586 411.361c-.318-1.04-.115-2.009.468-2.645l-9.117 9.951c-.583.637-.786 1.605-.468 2.646l6.058 19.432 9.117-9.951-6.058-19.432z" fill="#3658c1"/><path d="m679.527 441.244c-.036 0-.073-.004-.109-.012-.174-.039-.314-.168-.368-.339l-6.059-19.432c-.358-1.176-.143-2.346.576-3.132l9.117-9.951c.188-.204.506-.216.707-.031.203.187.218.502.031.707-.479.522-.613 1.33-.359 2.159l6.059 19.432c.053.17.012.355-.108.487l-9.117 9.951c-.097.104-.23.162-.369.162zm2.42-30.581-7.642 8.341c-.479.522-.612 1.33-.358 2.162l5.799 18.599 8.336-9.098-5.974-19.157s0-.002 0-.002c-.086-.284-.14-.566-.16-.844z" fill="#0a0a0a"/><path d="m692.464 433.753-9.117 9.951c-1.848-.189-3.337-1.416-3.82-2.96l9.117-9.951c.483 1.545 1.972 2.772 3.82 2.96" fill="#3658c1"/><path d="m683.348 444.204c-.017 0-.034 0-.051-.002-1.984-.203-3.69-1.533-4.247-3.309-.053-.17-.012-.356.108-.487l9.117-9.951c.122-.132.304-.19.478-.15.175.039.315.168.369.338.438 1.4 1.802 2.45 3.394 2.612.188.02.35.143.416.32.067.177.029.376-.098.516l-9.117 9.951c-.096.104-.229.162-.369.162zm-3.248-3.345c.49 1.197 1.669 2.092 3.055 2.316l8.34-9.103c-1.298-.376-2.396-1.241-3.005-2.369z" fill="#0a0a0a"/><path d="m742.539 487.145-9.117 9.951c-.54.589-1.357.84-2.228.744-.632-.07-1.292-.322-1.896-.76l9.117-9.951c.604.438 1.264.69 1.896.76.871.096 1.688-.155 2.228-.744" fill="#3658c1"/><path d="m731.551 498.36c-.136 0-.272-.007-.411-.022-.741-.082-1.479-.376-2.136-.852-.115-.083-.189-.212-.203-.354-.015-.142.032-.283.128-.388l9.117-9.951c.174-.188.457-.215.663-.067.515.374 1.088.604 1.657.667.739.082 1.391-.132 1.804-.584.188-.204.503-.216.707-.031.203.186.218.502.031.706-.002.001-.003.003-.004.004l-9.112 9.947c-.55.599-1.351.926-2.241.926zm-1.478-1.385c.38.199.779.325 1.176.369.729.082 1.39-.132 1.806-.585l7.648-8.35c-.147.005-.296-.006-.446-.022-.604-.067-1.205-.274-1.761-.605z" fill="#0a0a0a"/><path d="m719.229 470.064-9.117 9.951 7.793-18.736 9.117-9.95z" fill="#3658c1"/><path d="m710.111 480.515c-.093 0-.187-.026-.269-.079-.205-.13-.286-.389-.193-.613l7.794-18.736c.022-.054.054-.103.093-.146l9.117-9.951c.166-.179.436-.214.638-.083.205.13.286.389.193.613l-7.794 18.736c-.022.054-.054.103-.093.146l-9.117 9.951c-.099.106-.233.162-.369.162zm8.222-18.963-6.666 16.025 7.134-7.786 6.666-16.025z" fill="#0a0a0a"/><path d="m738.415 487.129-9.117 9.951-17.676-12.777 9.116-9.951z" fill="#3658c1"/><path d="m729.298 497.581c-.103 0-.205-.031-.293-.095l-17.677-12.777c-.115-.083-.19-.212-.204-.354-.015-.142.032-.283.128-.389l9.117-9.951c.174-.187.458-.215.662-.067l17.677 12.777c.115.083.19.212.204.354.015.142-.032.283-.128.389l-9.117 9.951c-.099.107-.233.162-.369.162zm-16.929-13.354 16.86 12.188 8.438-9.209-16.86-12.187z" fill="#0a0a0a"/><path d="m720.738 474.352-9.117 9.951c-1.499-1.088-2.159-2.948-1.51-4.288l9.117-9.951c-.649 1.34.011 3.201 1.51 4.288" fill="#3658c1"/><path d="m711.621 484.803c-.103 0-.205-.031-.294-.095-1.706-1.238-2.423-3.349-1.666-4.911.021-.044.049-.084.081-.12l9.117-9.951c.17-.183.446-.214.65-.076.205.139.277.408.169.632-.54 1.113.055 2.723 1.354 3.665.115.084.189.213.203.354.015.142-.032.283-.128.388l-9.117 9.951c-.099.107-.233.162-.369.162zm-1.089-4.507c-.441 1.005.005 2.384 1.038 3.323l8.441-9.213c-.864-.783-1.396-1.805-1.511-2.807l-7.969 8.697z" fill="#0a0a0a"/><path d="m858.109 418.575c.517 1.651-.291 3.111-1.859 3.37l-20.769 4.462c.373 5.985-.16 11.778-1.554 17.203l18.876 16.814c1.432 1.194 1.93 3.059 1.154 4.317l-9.107 14.709c-.508.815-1.456 1.187-2.486 1.073-.546-.06-1.114-.257-1.653-.596l-21.599-12.424c-4.121 3.463-8.882 6.194-14.144 8.107l4.106 22.439c.378 1.659-.569 3.023-2.178 3.141l-18.957 1.36c-.193.014-.388.01-.582-.012-1.426-.157-2.835-1.235-3.411-2.672l-9.751-22.036c-6.198-1.082-12.414-3.02-18.457-5.758l-13.082 14.931c-.534.689-1.409.987-2.346.884-.632-.07-1.292-.322-1.896-.76l-17.677-12.777c-1.499-1.088-2.159-2.948-1.51-4.288l7.794-18.736c-4.654-4.999-8.685-10.465-11.977-16.236l-22.581-1.339c-1.848-.189-3.337-1.416-3.82-2.96l-6.058-19.432c-.505-1.65.301-3.121 1.858-3.37l20.769-4.462c-.361-5.983.16-11.779 1.565-17.202l-18.877-16.826c-1.43-1.183-1.942-3.061-1.164-4.307l9.119-14.707c.508-.823 1.451-1.193 2.482-1.08.545.06 1.114.256 1.655.591l21.589 12.434c4.119-3.474 8.881-6.205 14.143-8.119l-4.094-22.438c-.378-1.658.571-3.011 2.18-3.13l18.944-1.372c.193-.014.388-.01.583.011 1.428.157 2.846 1.238 3.412 2.683l9.749 22.025c6.198 1.082 12.416 3.031 18.457 5.758l13.082-14.93c.532-.686 1.402-.981 2.335-.878.636.07 1.301.325 1.908.765l17.687 12.766c1.499 1.087 2.161 2.959 1.51 4.288l-7.792 18.747c4.641 4.986 8.673 10.463 11.966 16.235l22.579 1.328c1.86.19 3.348 1.417 3.832 2.961l6.048 19.442zm-81.847 41.803c25.558 2.818 43.629-15.229 40.363-40.308s-26.634-47.695-52.192-50.512c-25.558-2.818-43.629 15.229-40.363 40.308s26.634 47.694 52.192 50.512" fill="#b0c3ff"/><path d="m787.715 503.061c-.138 0-.274-.008-.412-.023-1.617-.178-3.188-1.405-3.82-2.983l-9.636-21.776c-6.045-1.079-12.089-2.96-17.976-5.597l-12.838 14.652c-.607.787-1.619 1.179-2.776 1.052-.742-.082-1.48-.377-2.136-.852l-17.676-12.776c-1.707-1.239-2.424-3.35-1.667-4.912l7.659-18.413c-4.522-4.892-8.453-10.224-11.692-15.858l-22.31-1.323c-2.006-.204-3.712-1.534-4.269-3.31l-6.059-19.432c-.304-.994-.207-1.962.272-2.731.431-.69 1.135-1.146 1.984-1.282l20.325-4.367c-.31-5.795.204-11.387 1.529-16.633l-18.65-16.624c-1.626-1.344-2.173-3.475-1.256-4.945l9.118-14.706c.593-.961 1.707-1.452 2.962-1.313.631.07 1.275.299 1.863.662l21.272 12.252c3.995-3.316 8.576-5.95 13.629-7.835l-4.02-22.024c-.217-.95-.051-1.873.471-2.579.494-.668 1.263-1.073 2.164-1.14l18.945-1.373c.223-.017.448-.012.673.013 1.63.18 3.202 1.413 3.823 2.998l9.633 21.761c6.006 1.072 12.051 2.954 17.975 5.597l12.839-14.652c.604-.782 1.617-1.173 2.766-1.046.745.083 1.487.379 2.147.857l17.687 12.766c1.713 1.243 2.429 3.354 1.666 4.913l-7.657 18.423c4.505 4.875 8.433 10.207 11.681 15.856l22.309 1.313c2.013.205 3.724 1.534 4.28 3.311l6.048 19.443c.308.983.217 1.945-.254 2.71-.429.697-1.14 1.159-2 1.301l-20.326 4.368c.317 5.75-.193 11.342-1.519 16.633l18.648 16.612c1.614 1.346 2.156 3.48 1.247 4.953l-9.108 14.709c-.597.958-1.701 1.448-2.965 1.308-.636-.071-1.28-.302-1.865-.67l-21.279-12.24c-4.005 3.313-8.587 5.943-13.63 7.824l4.031 22.025c.218.953.051 1.88-.474 2.59-.494.669-1.262 1.074-2.16 1.14l-18.958 1.36c-.087.006-.174.01-.261.01zm-31.976-31.486c.069 0 .14.015.206.044 6.002 2.721 12.171 4.646 18.337 5.721.164.029.304.138.371.291l9.75 22.036c.508 1.267 1.742 2.237 3.009 2.377.163.019.326.021.491.01l18.957-1.36c.603-.044 1.11-.307 1.43-.737.348-.472.454-1.109.298-1.795l-4.111-22.459c-.044-.24.092-.477.321-.56 5.203-1.892 9.911-4.59 13.994-8.021.161-.136.39-.155.57-.051l21.599 12.424c.475.298.974.479 1.459.533.867.098 1.618-.219 2.007-.841l9.106-14.707c.638-1.034.178-2.646-1.05-3.67l-18.888-16.825c-.14-.125-.198-.317-.151-.498 1.39-5.409 1.907-11.145 1.539-17.048-.016-.247.152-.468.394-.52l20.769-4.462c.604-.101 1.058-.391 1.336-.843.317-.515.371-1.186.15-1.889s-6.048-19.443-6.048-19.443c-.438-1.399-1.807-2.45-3.405-2.612l-22.558-1.327c-.169-.01-.321-.104-.405-.251-3.287-5.761-7.29-11.192-11.897-16.142-.133-.144-.171-.352-.096-.533l7.793-18.748c.556-1.137-.039-2.747-1.342-3.691l-17.687-12.766c-.521-.377-1.098-.61-1.67-.673-.792-.088-1.479.164-1.885.688l-13.102 14.954c-.144.166-.381.216-.582.126-6.043-2.727-12.212-4.652-18.337-5.721-.164-.029-.304-.138-.371-.291l-9.749-22.025c-.5-1.274-1.734-2.248-3.01-2.389-.164-.018-.329-.021-.49-.01l-18.945 1.373c-.605.045-1.115.307-1.434.737-.346.467-.45 1.101-.295 1.783l4.1 22.459c.044.24-.092.477-.321.56-5.213 1.896-9.921 4.598-13.992 8.031-.16.135-.39.156-.572.051l-21.589-12.434c-.475-.294-.975-.473-1.459-.526-.871-.094-1.616.22-2.002.845l-9.12 14.708c-.643 1.03-.177 2.637 1.059 3.658l18.892 16.838c.14.125.198.317.151.499-1.389 5.358-1.91 11.094-1.551 17.047.015.247-.152.467-.394.519l-20.77 4.462c-.594.096-1.041.381-1.32.829-.324.52-.383 1.196-.165 1.906l6.058 19.429c.438 1.4 1.802 2.45 3.394 2.612l22.559 1.338c.169.01.321.104.405.251 3.277 5.745 7.284 11.176 11.909 16.143.134.144.171.352.096.533l-7.794 18.736c-.552 1.14.043 2.75 1.342 3.691l17.676 12.776c.516.375 1.089.605 1.658.668.798.092 1.487-.165 1.896-.693l13.102-14.954c.097-.111.235-.17.376-.17zm25.756-10.404c-1.73 0-3.494-.098-5.288-.295-25.732-2.837-49.343-25.69-52.633-50.944-1.581-12.143 1.713-23.078 9.275-30.791 7.74-7.896 18.975-11.475 31.639-10.079 25.732 2.837 49.343 25.691 52.633 50.945 1.581 12.143-1.712 23.078-9.274 30.791-6.645 6.777-15.865 10.374-26.352 10.374zm-5.179-1.29c12.355 1.362 23.295-2.114 30.816-9.784 7.343-7.489 10.537-18.13 8.996-29.962-3.233-24.824-26.448-47.29-51.75-50.08-12.355-1.364-23.294 2.113-30.815 9.785-7.343 7.489-10.538 18.13-8.997 29.962 3.233 24.824 26.448 47.29 51.75 50.079z" fill="#0a0a0a"/><path d="m1262.567 727.853c-.707-1.455-1.741-2.613-3-3.414l-8.911-5.667c1.259.8 2.292 1.958 3 3.414l8.158 16.679 8.911 5.667-8.159-16.679z" fill="#3658c1"/><path d="m1270.726 745.033c-.093 0-.186-.026-.269-.078l-8.911-5.667c-.077-.049-.14-.12-.181-.202l-8.158-16.679c-.654-1.344-1.628-2.454-2.817-3.21h-.002c-.232-.149-.302-.458-.153-.691s.459-.3.69-.154l8.91 5.667c1.347.856 2.447 2.107 3.181 3.617l8.159 16.679c.099.201.051.443-.116.592-.094.084-.213.127-.333.127zm-8.523-6.514 7.295 4.64-7.38-15.085s0 0 0 0c-.652-1.343-1.627-2.454-2.818-3.211l-5.521-3.512c.117.201.227.407.329.618l8.097 16.552z" fill="#0a0a0a"/><path d="m1377.895 741.944-8.911-5.667c2.491 1.584 3.847 4.781 3.26 8.533l-24.045 153.728c-.856 5.474-5.525 10.063-10.433 10.236l-195.691 6.926c-1.542.055-2.925-.333-4.07-1.061l8.911 5.667c1.145.728 2.527 1.116 4.07 1.062l195.691-6.926c4.907-.173 9.576-4.762 10.433-10.236l24.045-153.728c.587-3.752-.77-6.949-3.261-8.533z" fill="#3658c1"/><path d="m1150.706 921.872c-1.479 0-2.877-.393-4.059-1.145l-8.911-5.667c-.232-.148-.302-.457-.153-.69s.457-.3.69-.154l.013.008c1.086.687 2.391 1.021 3.771.975l195.691-6.926c4.669-.166 9.136-4.568 9.956-9.814l24.045-153.728c.536-3.425-.627-6.503-3.034-8.034-.232-.148-.302-.457-.153-.69.149-.232.459-.301.69-.153l8.91 5.667c2.748 1.748 4.084 5.208 3.486 9.032l-24.045 153.728c-.892 5.696-5.785 10.478-10.909 10.659l-195.691 6.926c-.1.004-.199.005-.298.005zm-9.323-5.678 5.802 3.689c1.089.693 2.39 1.03 3.784.984l195.691-6.926c4.669-.165 9.136-4.567 9.956-9.814l24.045-153.728c.536-3.425-.627-6.503-3.035-8.034l-5.789-3.683c.922 1.742 1.261 3.908.901 6.204l-24.045 153.728c-.892 5.696-5.785 10.478-10.909 10.659l-195.691 6.926c-.238.009-.476.007-.71-.005z" fill="#0a0a0a"/><path d="m1245.821 717.507c3.427-.121 6.35 1.624 7.834 4.679l8.159 16.679 103.099-3.649c4.907-.174 8.187 4.119 7.331 9.593l-24.045 153.728c-.856 5.474-5.526 10.063-10.433 10.236l-195.692 6.926c-4.907.174-8.198-4.133-7.342-9.607l27.491-175.759c.856-5.474 5.539-10.063 10.446-10.237l73.151-2.589z" fill="#b0c3ff"/><path d="m1141.792 916.205c-2.204 0-4.182-.866-5.595-2.459-1.711-1.929-2.425-4.747-1.958-7.73l27.491-175.759c.892-5.696 5.791-10.478 10.922-10.659l73.151-2.589c3.635-.132 6.729 1.725 8.301 4.959l8.017 16.387 102.775-3.637c2.309-.089 4.416.786 5.89 2.448 1.707 1.925 2.419 4.739 1.952 7.722l-24.045 153.728c-.892 5.696-5.785 10.478-10.909 10.659l-195.691 6.926c-.101.004-.201.005-.301.005zm104.047-198.198-73.151 2.589c-4.676.166-9.148 4.568-9.969 9.814l-27.491 175.759c-.421 2.688.206 5.207 1.719 6.912 1.275 1.438 3.115 2.187 5.111 2.119l195.691-6.926c4.669-.165 9.136-4.567 9.956-9.814l24.045-153.728c.421-2.687-.203-5.203-1.712-6.904-1.271-1.433-3.058-2.181-5.106-2.113l-103.1 3.649c-.215.018-.38-.103-.467-.28l-8.159-16.679c-1.395-2.868-4.112-4.502-7.367-4.399z" fill="#0a0a0a"/><path d="m1355.293 747.414-180.998 6.406c-3.973.141-7.763 3.855-8.459 8.303l-21.053 134.598c-.696 4.448 1.968 7.933 5.942 7.792l180.998-6.406c3.974-.141 7.777-3.855 8.473-8.303l21.053-134.598c.696-4.448-1.981-7.933-5.955-7.793" fill="#fff"/><path d="m1150.496 905.017c-1.812 0-3.438-.712-4.599-2.022-1.405-1.585-1.991-3.9-1.607-6.352l21.053-134.598c.729-4.663 4.737-8.577 8.936-8.725l180.997-6.406c1.926-.068 3.64.65 4.856 2.023 1.406 1.585 1.994 3.899 1.611 6.346l-21.054 134.598c-.729 4.662-4.743 8.576-8.949 8.725l-180.997 6.406c-.083.003-.165.004-.247.004zm204.797-157.603.018.5-180.997 6.406c-3.743.133-7.324 3.668-7.982 7.88l-21.053 134.598c-.338 2.156.161 4.173 1.367 5.534 1.014 1.142 2.456 1.738 4.063 1.682l180.997-6.406c3.751-.133 7.338-3.668 7.996-7.88l21.054-134.598c.337-2.152-.163-4.167-1.371-5.528-1.014-1.145-2.458-1.737-4.073-1.688l-.018-.5z" fill="#0a0a0a"/><path d="m1352.156 754.139c4.907-.174 8.185 4.134 7.328 9.609l-20.197 129.123c-.856 5.474-5.526 10.063-10.433 10.236l-195.692 6.926c-4.907.174-8.198-4.133-7.342-9.607l18.449-117.951c.856-5.474 5.539-10.063 10.446-10.237l78.418-2.775 11.931-9.047c2.227-1.691 4.751-2.654 7.191-2.74l99.899-3.536z" fill="#b0c3ff"/><path d="m1132.881 910.537c-2.204 0-4.182-.867-5.595-2.459-1.711-1.929-2.425-4.747-1.958-7.729l18.449-117.951c.892-5.696 5.791-10.478 10.922-10.66l78.26-2.77 11.805-8.951c2.295-1.743 4.95-2.752 7.476-2.841l99.899-3.536c2.324-.09 4.409.787 5.883 2.448 1.711 1.929 2.425 4.749 1.958 7.737l-20.197 129.123c-.892 5.696-5.785 10.478-10.909 10.659l-195.691 6.926c-.101.004-.201.005-.301.005zm219.556-155.903c-.087 0-.175.001-.263.004l-99.899 3.536c-2.321.083-4.773 1.02-6.906 2.639l-11.932 9.047c-.082.062-.181.098-.284.101l-78.418 2.775c-4.676.166-9.148 4.569-9.969 9.815l-18.449 117.951c-.421 2.687.206 5.207 1.718 6.912 1.275 1.438 3.125 2.191 5.112 2.119l195.691-6.926c4.669-.166 9.136-4.568 9.956-9.814l20.197-129.123c.421-2.692-.205-5.214-1.718-6.919-1.216-1.371-2.926-2.117-4.837-2.117z" fill="#0a0a0a"/><path d="m1365.129 760.865-8.911-5.667c2.496 1.587 3.854 4.794 3.267 8.55l-20.197 129.123c-.856 5.474-5.525 10.063-10.432 10.236l-195.691 6.926c-1.542.055-2.925-.333-4.07-1.062l8.911 5.667c1.145.728 2.527 1.116 4.07 1.062l195.691-6.926c4.907-.174 9.577-4.762 10.433-10.236l20.197-129.123c.587-3.756-.771-6.962-3.267-8.55z" fill="#3658c1"/><path d="m1141.797 916.205c-1.48 0-2.878-.393-4.061-1.145l-8.911-5.667c-.232-.148-.302-.457-.153-.69.149-.232.459-.301.69-.153l.015.009c1.086.687 2.387 1.022 3.77.975l195.691-6.926c4.669-.166 9.136-4.568 9.956-9.814l20.196-129.123c.537-3.428-.625-6.51-3.032-8.045l-.009-.005c-.232-.148-.302-.457-.153-.69.149-.232.459-.301.69-.154.005.003.009.006.014.009l8.897 5.658c2.754 1.751 4.092 5.219 3.492 9.049l-20.196 129.123c-.892 5.696-5.785 10.478-10.909 10.659l-195.691 6.926c-.099.003-.197.005-.296.005zm-9.324-5.678 5.801 3.689c1.09.692 2.41 1.03 3.784.984l195.691-6.926c4.669-.166 9.136-4.568 9.956-9.814l20.196-129.123c.537-3.432-.628-6.516-3.041-8.051l-5.787-3.68c.926 1.746 1.266 3.917.905 6.218l-20.196 129.123c-.892 5.696-5.785 10.478-10.909 10.659l-195.691 6.926c-.238.009-.477.007-.709-.005z" fill="#0a0a0a"/><path d="m366.922 560.399-8.808 18.434-38.163-7.001 8.807-18.433z" fill="#3658c1"/><path d="m358.114 579.333c-.029 0-.06-.002-.09-.008l-38.164-7c-.153-.028-.285-.126-.355-.265-.071-.139-.073-.302-.006-.442l8.808-18.434c.097-.204.31-.322.541-.276l38.164 7c.153.028.285.126.355.265.071.139.073.302.006.442l-8.808 18.434c-.084.176-.261.285-.451.285zm-37.432-7.875 37.146 6.813 8.361-17.499-37.146-6.813z" fill="#0a0a0a"/><path d="m322.373 549.128-4.698-8.07c-.884-1.519-1.016-3.064-.416-4.321l-8.807 18.434c-.6 1.256-.468 2.802.416 4.321l4.697 8.07c1.229 2.111 3.73 3.788 6.386 4.271l8.807-18.434c-2.655-.482-5.156-2.159-6.385-4.271z" fill="#3658c1"/><path d="m319.95 572.333c-.029 0-.06-.002-.09-.008-2.786-.506-5.427-2.277-6.728-4.511l-4.698-8.07c-.963-1.656-1.117-3.356-.435-4.788l8.808-18.434c.119-.249.419-.355.667-.236.249.119.354.417.235.667-.537 1.123-.396 2.492.397 3.854l4.696 8.07c1.16 1.992 3.532 3.574 6.044 4.03.153.028.284.126.355.265s.073.303.006.443l-8.808 18.434c-.084.176-.261.285-.451.285zm-3.443-32.862-7.604 15.916c-.536 1.124-.396 2.492.397 3.854l4.697 8.07c1.102 1.893 3.3 3.416 5.67 3.954l8.367-17.511c-2.547-.642-4.893-2.31-6.094-4.374l-4.696-8.07c-.356-.612-.603-1.23-.736-1.839z" fill="#0a0a0a"/><path d="m400.598 562.375-41.01 33.889-8.807 18.434 41.01-33.889c.448-.367.789-.805 1.021-1.291l8.807-18.434c-.232.486-.573.924-1.021 1.291z" fill="#3658c1"/><path d="m350.78 615.197c-.108 0-.217-.035-.308-.106-.185-.145-.245-.398-.144-.609l8.808-18.434c.031-.066.076-.124.133-.17l41.011-33.889s0 0 0-.001c.383-.313.681-.689.886-1.117v-.002c.119-.249.419-.355.667-.236.249.119.354.417.235.667s-8.808 18.434-8.808 18.434c-.267.56-.655 1.052-1.154 1.461l-41.01 33.888c-.092.077-.205.115-.318.115zm9.211-18.619-7.783 16.29 39.265-32.445c.386-.317.685-.694.888-1.12l7.478-15.651-39.847 32.927z" fill="#0a0a0a"/><path d="m320.616 534.38c.902-.176 1.911-.173 2.967.024l68.092 12.639c2.65.494 5.151 2.171 6.369 4.263l3.17 5.446c1.223 2.101.984 4.312-.615 5.623l-41.01 33.889c-.622.517-1.43.883-2.336 1.059-1.16.226-2.46.149-3.764-.211-2.376-.658-4.458-2.185-5.561-4.08l-4.697-8.07c-1.229-2.111-.984-4.312.62-5.635l23.072-18.927-38.164-7c-2.655-.483-5.157-2.159-6.385-4.271l-4.697-8.07c-1.103-1.894-1.036-3.83.163-5.194.672-.756 1.639-1.262 2.778-1.483z" fill="#b0c3ff"/><path d="m355.886 597.95c-.819 0-1.675-.12-2.531-.356-2.502-.692-4.691-2.304-5.859-4.31l-4.697-8.07c-1.354-2.326-1.066-4.788.733-6.272l22.24-18.244-37.104-6.806c-2.786-.506-5.427-2.277-6.728-4.511l-4.698-8.07c-1.211-2.081-1.129-4.24.22-5.776.738-.831 1.795-1.398 3.058-1.644.986-.192 2.048-.183 3.154.023l68.092 12.639c2.786.52 5.42 2.288 6.709 4.503l3.17 5.446c1.355 2.329 1.069 4.787-.729 6.261l-41.01 33.887c-.685.569-1.569.972-2.559 1.165-.468.091-.958.136-1.462.136zm-33.897-63.196c-.444 0-.873.039-1.277.118-1.046.204-1.91.662-2.499 1.325-1.05 1.195-1.089 2.919-.104 4.611l4.697 8.07c1.159 1.992 3.531 3.574 6.043 4.03l38.164 7c.191.035.346.178.395.367s-.017.388-.167.512l-23.072 18.927c-1.423 1.173-1.617 3.088-.506 4.997l4.698 8.07c1.039 1.786 3.006 3.225 5.262 3.849 1.236.342 2.459.413 3.535.203.825-.161 1.556-.49 2.112-.953l41.012-33.889c1.399-1.148 1.596-3.104.5-4.986l-3.169-5.446c-1.15-1.975-3.517-3.554-6.028-4.022l-68.092-12.639c-.509-.095-1.015-.143-1.503-.143z" fill="#0a0a0a"/><path d="m357.252 597.323c-1.16.226-2.459.149-3.764-.211-2.376-.658-4.458-2.185-5.561-4.08l-4.698-8.07c-.884-1.518-1.005-3.083-.407-4.333l-8.808 18.434c-.598 1.251-.476 2.815.408 4.333l4.698 8.07c1.103 1.894 3.185 3.422 5.561 4.08 1.305.361 2.604.437 3.764.211.906-.177 1.714-.542 2.336-1.059l8.807-18.434c-.622.517-1.43.882-2.336 1.059z" fill="#3658c1"/><path d="m347.078 616.383c-.818 0-1.674-.12-2.531-.356-2.502-.693-4.692-2.304-5.859-4.31l-4.698-8.07c-.949-1.631-1.104-3.381-.427-4.8l8.808-18.433c.119-.25.415-.355.667-.236.249.119.354.417.235.667-.533 1.117-.392 2.526.389 3.867l4.698 8.07c1.039 1.786 3.006 3.225 5.262 3.849 1.236.342 2.459.412 3.535.203.825-.161 1.556-.49 2.112-.953.182-.15.441-.154.627-.01.185.145.245.398.144.61l-8.808 18.434c-.031.065-.076.123-.132.169-.686.569-1.57.972-2.56 1.165-.468.091-.958.136-1.462.136zm-5.01-33.02-7.604 15.914c-.533 1.116-.392 2.525.39 3.867l4.697 8.07c1.039 1.786 3.006 3.225 5.262 3.849 1.235.341 2.459.412 3.535.203.784-.153 1.483-.458 2.029-.886l8.066-16.882c-.347.135-.714.241-1.097.316-1.227.24-2.607.163-3.993-.22-2.502-.692-4.692-2.304-5.86-4.31l-4.697-8.07c-.354-.608-.597-1.232-.729-1.85z" fill="#0a0a0a"/><path d="m273.547 531.144c-.219-.983-.12-1.896.25-2.67l-8.807 18.434c-.37.775-.469 1.687-.25 2.67l20.158 91 8.807-18.433z" fill="#3658c1"/><path d="m284.897 641.078c-.019 0-.038 0-.057-.003-.212-.024-.386-.18-.432-.389l-20.158-91c-.237-1.068-.139-2.103.287-2.994l8.807-18.433s0 0 0 0c.12-.249.415-.355.667-.236.249.119.354.417.235.667-.328.687-.401 1.499-.213 2.347s20.158 91.001 20.158 91.001c.024.109.011.223-.037.323l-8.808 18.433c-.084.175-.26.285-.451.285zm-11.85-109.876-7.607 15.921c-.328.687-.401 1.499-.213 2.347l19.845 89.584 8.107-16.968-20.121-90.833c-.004-.017-.007-.034-.011-.051z" fill="#0a0a0a"/><path d="m285.892 524.434c1.945-.379 4.278.1 6.237 1.268 1.976 1.175 3.375 2.924 3.765 4.693l20.014 91.028c.537 2.466-.915 4.473-3.622 5l-8.585 1.672c-1.934.377-4.261-.093-6.231-1.258-1.965-1.177-3.364-2.926-3.765-4.693l-20.158-91.001c-.548-2.464.898-4.481 3.605-5.008l8.74-1.702z" fill="#b0c3ff"/><path d="m302.336 628.722c-1.694 0-3.523-.509-5.121-1.455-2.074-1.242-3.567-3.116-3.997-5.013l-20.159-91.003c-.285-1.28-.092-2.483.56-3.478.706-1.078 1.927-1.834 3.438-2.128l8.739-1.702.096.491-.096-.491c2.06-.401 4.521.096 6.589 1.329 2.084 1.239 3.578 3.114 3.997 5.015l20.015 91.028c.279 1.281.082 2.481-.571 3.473-.708 1.076-1.931 1.831-3.443 2.125l-8.585 1.672c-.469.091-.959.136-1.461.136zm-15.07-103.916c-.44 0-.869.039-1.278.119l-8.739 1.702c-1.263.246-2.229.832-2.793 1.695-.5.764-.646 1.702-.42 2.713l20.158 91.001c.37 1.633 1.691 3.269 3.533 4.372 1.864 1.103 4.061 1.552 5.879 1.196l8.585-1.672c1.265-.247 2.232-.832 2.8-1.694.501-.762.649-1.699.43-2.709l-20.015-91.027c-.36-1.636-1.681-3.27-3.532-4.371-1.444-.861-3.091-1.325-4.607-1.325z" fill="#0a0a0a"/><path d="m312.286 626.423-8.585 1.672c-1.934.376-4.261-.093-6.231-1.258-1.965-1.177-3.364-2.926-3.765-4.693l-8.807 18.433c.401 1.767 1.801 3.516 3.765 4.693 1.97 1.166 4.297 1.635 6.231 1.258l8.585-1.672c1.632-.318 2.808-1.173 3.367-2.343l8.807-18.434c-.559 1.17-1.735 2.025-3.367 2.343z" fill="#3658c1"/><path d="m293.528 647.156c-1.694 0-3.523-.509-5.121-1.455-2.074-1.242-3.567-3.116-3.997-5.013-.025-.109-.013-.225.036-.326l8.807-18.433c.092-.192.299-.303.507-.282.211.024.385.179.432.386.372 1.636 1.693 3.271 3.535 4.375 1.863 1.102 4.062 1.55 5.878 1.196l8.586-1.672c1.438-.28 2.508-1.015 3.011-2.068.119-.25.415-.355.667-.236.249.119.354.417.235.667l-8.807 18.434c-.644 1.347-1.966 2.276-3.723 2.619l-8.585 1.672c-.469.091-.959.136-1.461.136zm-8.103-6.523c.419 1.581 1.713 3.144 3.493 4.209 1.864 1.103 4.063 1.551 5.879 1.196l8.585-1.672c1.438-.28 2.508-1.015 3.012-2.068l7.608-15.924c-.484.243-1.028.425-1.621.541l-8.586 1.672c-2.052.4-4.51-.093-6.581-1.318-1.633-.978-2.905-2.347-3.584-3.811z" fill="#0a0a0a"/><path d="m247.854 569.156-23.061 18.925-8.807 18.434 23.062-18.925c.455-.371.801-.814 1.036-1.306l8.807-18.434c-.235.492-.581.935-1.036 1.306z" fill="#3658c1"/><path d="m215.985 607.015c-.108 0-.218-.036-.309-.106-.185-.145-.243-.397-.143-.609l8.807-18.434c.031-.066.077-.125.134-.171l23.062-18.925s0 0 .002 0c.389-.317.69-.695.896-1.125l.004-.008c.119-.249.417-.354.666-.236.25.119.355.417.236.666s0 .002 0 .002c0 .002-.002.004-.003.006l-8.804 18.426c-.27.566-.664 1.064-1.17 1.478l-23.061 18.924c-.093.075-.205.113-.317.113zm9.21-18.618-7.79 16.306 21.324-17.5c.393-.32.695-.702.901-1.134l7.48-15.657-21.916 17.985z" fill="#0a0a0a"/><path d="m274.46 611.731-8.807 18.433c-.151.316-.349.614-.594.888-.651.742-1.617 1.259-2.777 1.485-.906.176-1.932.168-2.957-.028l8.807-18.433c1.024.196 2.051.205 2.957.028 1.16-.226 2.126-.744 2.777-1.485.245-.274.443-.571.594-.888" fill="#3658c1"/><path d="m260.92 633.164c-.553 0-1.121-.055-1.689-.163-.152-.029-.282-.127-.353-.266s-.071-.301-.005-.441l8.808-18.434c.098-.206.327-.317.545-.276.963.184 1.918.194 2.767.028 1.053-.205 1.917-.663 2.497-1.324.214-.239.388-.498.52-.774.119-.25.418-.354.667-.235s.354.417.235.667 0 .003-.002.004l-8.806 18.429c-.173.362-.399.701-.674 1.006-.724.825-1.78 1.394-3.053 1.642-.464.09-.953.136-1.457.136zm-.854-1.048c.74.083 1.462.058 2.119-.069 1.054-.205 1.916-.663 2.496-1.324.214-.239.388-.498.52-.774l7.596-15.896c-.484.245-1.026.428-1.613.542-.857.167-1.806.18-2.764.038l-8.354 17.484z" fill="#0a0a0a"/><path d="m268.132 614.076-8.808 18.434-68.092-12.64 8.807-18.433z" fill="#3658c1"/><path d="m259.324 633.01c-.03 0-.061-.003-.091-.008l-68.092-12.64c-.153-.028-.284-.126-.354-.265-.071-.138-.073-.302-.006-.442l8.807-18.433c.097-.204.321-.319.542-.276l68.093 12.639c.153.028.284.126.354.265.071.138.073.302.006.442l-8.808 18.434c-.084.176-.261.285-.451.285zm-67.359-13.512 67.073 12.451 8.361-17.5-67.074-12.45z" fill="#0a0a0a"/><path d="m193.671 597.174-3.17-5.446c-.878-1.509-.999-3.08-.4-4.333l-8.807 18.434c-.599 1.254-.479 2.824.4 4.333l3.17 5.445c1.223 2.102 3.725 3.779 6.369 4.263l8.807-18.434c-2.644-.484-5.146-2.162-6.369-4.263z" fill="#3658c1"/><path d="m191.232 620.371c-.029 0-.06-.002-.09-.008-2.781-.509-5.415-2.277-6.711-4.503l-3.17-5.445c-.946-1.626-1.099-3.376-.419-4.8l8.806-18.43s0-.003.002-.004c.119-.248.418-.354.667-.235s.354.417.235.667l-.002.005c-.533 1.12-.395 2.527.383 3.862l3.169 5.446c1.154 1.984 3.52 3.563 6.025 4.022.153.028.285.125.355.264.071.139.073.303.006.443l-8.807 18.434c-.084.176-.261.285-.451.285zm-1.888-30.231-7.6 15.905c-.535 1.122-.396 2.531.381 3.867l3.169 5.445c1.099 1.886 3.29 3.406 5.655 3.946l8.366-17.512c-2.542-.644-4.881-2.309-6.077-4.365l-3.17-5.446c-.353-.604-.595-1.226-.725-1.841z" fill="#0a0a0a"/><path d="m234.459 551.161c1.135-.221 2.431-.156 3.757.211 2.393.665 4.469 2.183 5.572 4.077l4.697 8.07c1.229 2.111.979 4.324-.631 5.637l-23.061 18.925 38.153 7.003c2.661.492 5.168 2.157 6.397 4.268l4.697 8.07c1.103 1.894 1.041 3.839-.174 5.196-.651.742-1.617 1.259-2.777 1.485-.906.176-1.932.168-2.957-.028l-68.092-12.639c-2.644-.484-5.146-2.161-6.369-4.263l-3.17-5.446c-1.218-2.092-.979-4.302.615-5.623l41.01-33.889c.634-.526 1.433-.881 2.333-1.056z" fill="#b0c3ff"/><path d="m269.728 614.73c-.552 0-1.121-.055-1.689-.163l-68.09-12.639c-2.781-.51-5.415-2.278-6.71-4.503l-3.169-5.445c-1.35-2.317-1.064-4.774.727-6.259l41.012-33.889c.692-.575 1.553-.966 2.556-1.162 1.225-.24 2.604-.164 3.986.22 2.512.698 4.706 2.309 5.869 4.308l4.697 8.07c1.359 2.334 1.066 4.797-.746 6.276l-22.228 18.24 37.093 6.808c2.801.519 5.445 2.289 6.738 4.509l4.698 8.07c1.219 2.095 1.132 4.256-.234 5.781-.725.826-1.782 1.396-3.054 1.643-.463.09-.953.136-1.456.136zm-35.173-63.079c-.837.163-1.547.483-2.109.95l-41.012 33.889c-1.394 1.156-1.591 3.114-.501 4.986l3.17 5.445c1.155 1.984 3.521 3.563 6.026 4.023l68.094 12.639c.966.184 1.921.194 2.77.029 1.053-.205 1.917-.663 2.497-1.324 1.065-1.19 1.108-2.914.118-4.615l-4.698-8.07c-1.152-1.979-3.529-3.561-6.055-4.028l-38.152-7.002c-.191-.035-.346-.178-.395-.367s.017-.388.167-.512l23.062-18.925c1.412-1.151 1.614-3.113.517-4.999l-4.698-8.07c-1.035-1.779-3.006-3.217-5.272-3.847-1.234-.342-2.454-.412-3.527-.202z" fill="#0a0a0a"/></svg>