<svg xmlns="http://www.w3.org/2000/svg" xmlns:xlink="http://www.w3.org/1999/xlink" viewBox="0,0,256,256" width="64px" height="64px" fill-rule="nonzero"><g fill="#5c7cfa" fill-rule="nonzero" stroke="none" stroke-width="1" stroke-linecap="butt" stroke-linejoin="miter" stroke-miterlimit="10" stroke-dasharray="" stroke-dashoffset="0" font-family="none" font-weight="none" font-size="none" text-anchor="none" style="mix-blend-mode: normal"><g transform="scale(4,4)"><path d="M32.05664,1.97656c-0.98832,-0.01882 -1.92248,0.45042 -2.49744,1.25451c-0.57496,0.80408 -0.71692,1.83979 -0.37951,2.76893h-9.17969c-0.55228,0 -1,0.44772 -1,1v1h-4c-2.76142,0 -5,2.23858 -5,5v6h-2v2h2v11h-2v2h2v23c0,2.76142 2.23858,5 5,5h34c2.76142,0 5,-2.23858 5,-5v-23h2v-2h-2v-11h2v-2h-2v-6c0,-2.76142 -2.23858,-5 -5,-5h-4v-1c0,-0.55228 -0.44772,-1 -1,-1h-9.17969c0.33056,-0.91032 0.20133,-1.92423 -0.34701,-2.72253c-0.54834,-0.7983 -1.44834,-1.28277 -2.41666,-1.30091zM32,4c0.55228,0 1,0.44772 1,1c0,0.55228 -0.44772,1 -1,1c-0.55228,0 -1,-0.44772 -1,-1c0,-0.55228 0.44772,-1 1,-1zM21,8h22v5c0,0.55228 -0.44772,1 -1,1h-20c-0.55228,0 -1,-0.44772 -1,-1zM15,10h4v2h-2c-1.6548,0.00494 -2.99506,1.3452 -3,3v4h-2v-6c0.00494,-1.6548 1.3452,-2.99506 3,-3zM45,10h4c1.6548,0.00494 2.99506,1.3452 3,3v6h-2v-4c-0.00494,-1.6548 -1.3452,-2.99506 -3,-3h-2zM17,14h2.17969c0.42527,1.19396 1.55289,1.9936 2.82031,2h20c1.26742,-0.0064 2.39504,-0.80604 2.82031,-2h2.17969c0.55228,0 1,0.44772 1,1v4h-2c-0.26531,0.00148 -0.51987,0.10499 -0.71094,0.28906l-4,4l1.42188,1.42188l3.69922,-3.71094h1.58984v11h-4v2h4v12h-4v2h4v7c0,0.55228 -0.44772,1 -1,1h-30c-0.55228,0 -1,-0.44772 -1,-1v-7h4v-2h-4v-12h4v-2h-4v-11h1.58984l3.69922,3.71094l1.42188,-1.42188l-4,-4c-0.19107,-0.18408 -0.44563,-0.28758 -0.71094,-0.28906h-2v-4c0,-0.55228 0.44772,-1 1,-1zM2,19v2h4v-2zM58,19v2h4v-2zM32.02148,20.00391c-1.58415,-0.01164 -2.90166,1.21586 -3.00195,2.79688c-1.55311,0.89368 -2.62711,2.43307 -2.92969,4.19922h-1.08984v2h2v1c0.00165,1.56527 0.74325,3.03761 2,3.9707v1.26953l-3.36914,0.9707c-2.14422,0.61815 -3.62335,2.57706 -3.63086,4.80859v7.98047c0,0.55228 0.44772,1 1,1h18c0.55228,0 1,-0.44772 1,-1v-7.98047c-0.00698,-2.22794 -1.48016,-4.18528 -3.61914,-4.80859l-3.38086,-0.9707v-1.26953c1.25675,-0.93309 1.99835,-2.40543 2,-3.9707v-1h2v-2h-1.08984c-0.30258,-1.76615 -1.37657,-3.30554 -2.92969,-4.19922c-0.09925,-1.56447 -1.3914,-2.78584 -2.95898,-2.79687zM12,21h2v11h-2zM50,21h2v11h-2zM32.0293,22c0.54081,0.01585 0.97094,0.45896 0.9707,1v4h-2v-4c-0.00012,-0.27037 0.10925,-0.52927 0.30317,-0.71767c0.19392,-0.1884 0.45587,-0.29025 0.72612,-0.28233zM2,23v2h4v-2zM58,23v2h4v-2zM29,25.35938v1.64063h-0.85937c0.15156,-0.60757 0.44621,-1.17009 0.85938,-1.64062zM35,25.35938c0.41317,0.47054 0.70782,1.03305 0.85938,1.64063h-0.85937zM29,29h6v1c0,1.65685 -1.34315,3 -3,3c-1.65685,0 -3,-1.34315 -3,-3zM2,32v2h4v-2zM58,32v2h4v-2zM12,34h2v12h-2zM50,34h2v12h-2zM31,34.90039c0.66,0.13333 1.34,0.13333 2,0v0.79883l-1,1.5l-1,-1.5zM2,36v2h4v-2zM58,36v2h4v-2zM29.57031,37.16016l0.81055,1.20898l-1.38086,0.35156v-1.39062zM34.42969,37.16016l0.57031,0.16992v1.39063l-1.38086,-0.35156zM27,37.90039v2.09961c-0.0027,0.26604 0.10179,0.52196 0.28991,0.71009c0.18813,0.18813 0.44405,0.29261 0.71009,0.28991c0.08098,0.00014 0.16166,-0.0097 0.24023,-0.0293l3.75977,-0.94141l3.75977,0.94141c0.07857,0.01959 0.15926,0.02943 0.24023,0.0293c0.26604,0.0027 0.52196,-0.10179 0.71009,-0.28991c0.18813,-0.18813 0.29261,-0.44405 0.28991,-0.71009v-2.09961l0.83008,0.23047c1.28462,0.37406 2.16849,1.5507 2.16992,2.88867v6.98047h-16v-6.98047c0.00169,-1.34102 0.8906,-2.51907 2.17969,-2.88867zM5,44c-1.65685,0 -3,1.34315 -3,3c0,1.65685 1.34315,3 3,3c1.65685,0 3,-1.34315 3,-3c0,-1.65685 -1.34315,-3 -3,-3zM59,44c-1.65685,0 -3,1.34315 -3,3c0,1.65685 1.34315,3 3,3c1.65685,0 3,-1.34315 3,-3c0,-1.65685 -1.34315,-3 -3,-3zM4.95898,46c0.27225,-0.01118 0.53727,0.08923 0.73377,0.27799c0.1965,0.18876 0.30747,0.44953 0.30724,0.72201c0,0.55228 -0.44772,1 -1,1c-0.55228,0.01133 -1.00918,-0.42721 -1.02051,-0.97949c-0.01133,-0.55228 0.42721,-1.00918 0.97949,-1.02051zM58.95898,46c0.27225,-0.01118 0.53727,0.08923 0.73377,0.27799c0.1965,0.18876 0.30747,0.44953 0.30724,0.72201c0,0.55228 -0.44772,1 -1,1c-0.55228,0.01133 -1.00918,-0.42721 -1.02051,-0.97949c-0.01133,-0.55228 0.42721,-1.00918 0.97949,-1.02051zM12,48h2v7c0.00494,1.6548 1.3452,2.99506 3,3h30c1.6548,-0.00494 2.99506,-1.3452 3,-3v-7h2v9c-0.00494,1.6548 -1.3452,2.99506 -3,3h-34c-1.6548,-0.00494 -2.99506,-1.3452 -3,-3z"></path></g></g></svg>